<svg width="227" height="224" viewBox="0 0 227 224" fill="none" xmlns="http://www.w3.org/2000/svg">
<path d="M0 111.999C0 173.856 50.145 224 112 224C173.855 224 224 173.856 224 111.999C224 50.144 173.855 5.49264e-05 112 5.49264e-05C50.145 5.49264e-05 0 50.144 0 111.999Z" fill="url(#paint0_linear_4_1508)"/>
<mask id="mask0_4_1508" style="mask-type:luminance" maskUnits="userSpaceOnUse" x="0" y="0" width="224" height="224">
<path d="M0 111.999C0 173.856 50.145 224 112 224C173.855 224 224 173.856 224 111.999C224 50.144 173.855 9.15006e-06 112 9.15006e-06C50.145 9.15006e-06 0 50.144 0 111.999Z" fill="white"/>
</mask>
<g mask="url(#mask0_4_1508)">
<g opacity="0.630005">
<mask id="mask1_4_1508" style="mask-type:luminance" maskUnits="userSpaceOnUse" x="-266" y="-138" width="784" height="470">
<path d="M-265.184 -137.021H517.804V331.334H-265.184V-137.021Z" fill="white"/>
</mask>
<g mask="url(#mask1_4_1508)">
<path d="M-265.087 82.2393H-265.184L-265.183 81.0325H-265.087C-164.31 81.0325 -88.7415 21.7757 -43.0857 -27.9452C6.42466 -81.8625 32.3953 -136.476 32.6507 -137.021L33.7431 -136.508C33.485 -135.961 7.43587 -81.18 -42.1969 -27.1296C-71.3554 4.62505 -102.832 29.9265 -135.749 48.0698C-176.885 70.7434 -220.403 82.2393 -265.087 82.2393Z" fill="#1F1F1F"/>
</g>
<mask id="mask2_4_1508" style="mask-type:luminance" maskUnits="userSpaceOnUse" x="-266" y="-138" width="784" height="470">
<path d="M-265.184 -137.021H517.804V331.334H-265.184V-137.021Z" fill="white"/>
</mask>
<g mask="url(#mask2_4_1508)">
<path d="M-259.523 85.1023H-259.621L-259.619 83.8955H-259.523C-158.758 83.8955 -83.1976 24.652 -37.5445 -25.0568C11.9725 -78.9742 37.9577 -133.613 38.2145 -134.158L39.3069 -133.645C39.0487 -133.098 12.9983 -78.3169 -36.6331 -24.2665C-65.7917 7.4881 -97.268 32.7896 -130.185 50.9328C-171.321 73.6065 -214.839 85.1023 -259.523 85.1023Z" fill="#1F1F1F"/>
</g>
<mask id="mask3_4_1508" style="mask-type:luminance" maskUnits="userSpaceOnUse" x="-266" y="-138" width="784" height="470">
<path d="M-265.184 -137.021H517.804V331.334H-265.184V-137.021Z" fill="white"/>
</mask>
<g mask="url(#mask3_4_1508)">
<path d="M-253.958 87.9655H-254.055V86.7587H-253.96C-153.181 86.7587 -77.6138 27.5019 -31.9567 -22.2189C17.5523 -76.1363 43.5229 -130.75 43.7784 -131.295L44.8707 -130.781C44.6126 -130.235 18.5635 -75.4537 -31.0693 -21.402C-60.2278 10.3526 -91.7028 35.6528 -124.621 53.796C-165.757 76.4697 -209.274 87.9655 -253.958 87.9655Z" fill="#1F1F1F"/>
</g>
<mask id="mask4_4_1508" style="mask-type:luminance" maskUnits="userSpaceOnUse" x="-266" y="-138" width="784" height="470">
<path d="M-265.184 -137.021H517.804V331.334H-265.184V-137.021Z" fill="white"/>
</mask>
<g mask="url(#mask4_4_1508)">
<path d="M-248.394 90.8286H-248.492V89.6218H-248.394C-147.617 89.6218 -72.05 30.365 -26.3929 -19.3559C23.1161 -73.2733 49.0867 -127.887 49.3421 -128.432L50.4345 -127.918C50.1764 -127.372 24.1273 -72.5907 -25.5041 -18.5389C-54.664 13.2157 -86.139 38.5158 -119.058 56.659C-160.194 79.3327 -203.71 90.8286 -248.394 90.8286Z" fill="#1F1F1F"/>
</g>
<mask id="mask5_4_1508" style="mask-type:luminance" maskUnits="userSpaceOnUse" x="-266" y="-138" width="784" height="470">
<path d="M-265.184 -137.021H517.804V331.334H-265.184V-137.021Z" fill="white"/>
</mask>
<g mask="url(#mask5_4_1508)">
<path d="M-242.831 93.6918H-242.928V92.485H-242.832C-142.066 92.485 -66.505 33.2415 -20.8532 -16.4661C28.6638 -70.3848 54.6504 -125.023 54.9059 -125.569L55.9982 -125.055C55.7401 -124.508 29.691 -69.7275 -19.9404 -15.6758C-49.1003 16.0788 -80.5753 41.379 -113.494 59.5222C-154.63 82.1959 -198.146 93.6918 -242.831 93.6918Z" fill="#1F1F1F"/>
</g>
<mask id="mask6_4_1508" style="mask-type:luminance" maskUnits="userSpaceOnUse" x="-266" y="-138" width="784" height="470">
<path d="M-265.184 -137.021H517.804V331.334H-265.184V-137.021Z" fill="white"/>
</mask>
<g mask="url(#mask6_4_1508)">
<path d="M-237.267 96.5549H-237.364V95.3481H-237.267C-136.502 95.3481 -60.9411 36.1046 -15.2893 -13.6042C34.2277 -67.5216 60.2143 -122.16 60.4698 -122.706L61.5621 -122.192C61.3053 -121.645 35.2549 -66.8643 -14.3765 -12.8126C-43.5364 18.942 -75.0114 44.2422 -107.93 62.3854C-149.066 85.0591 -192.582 96.5549 -237.267 96.5549Z" fill="#1F1F1F"/>
</g>
<mask id="mask7_4_1508" style="mask-type:luminance" maskUnits="userSpaceOnUse" x="-266" y="-138" width="784" height="470">
<path d="M-265.184 -137.021H517.804V331.334H-265.184V-137.021Z" fill="white"/>
</mask>
<g mask="url(#mask7_4_1508)">
<path d="M-231.703 99.418H-231.8V98.2112H-231.703C-130.938 98.2112 -55.3773 38.9677 -9.72554 -10.7399C39.7915 -64.6586 65.778 -119.297 66.0335 -119.843L67.1272 -119.329C66.8691 -118.782 40.8186 -64.0013 -8.81279 -9.94951C-37.9727 21.8051 -69.4477 47.1053 -102.366 65.2485C-143.502 87.9222 -187.019 99.418 -231.703 99.418Z" fill="#1F1F1F"/>
</g>
<mask id="mask8_4_1508" style="mask-type:luminance" maskUnits="userSpaceOnUse" x="-266" y="-138" width="784" height="470">
<path d="M-265.184 -137.021H517.804V331.334H-265.184V-137.021Z" fill="white"/>
</mask>
<g mask="url(#mask8_4_1508)">
<path d="M-226.139 102.281H-226.236V101.074H-226.139C-125.374 101.074 -49.8135 41.8322 -4.16169 -7.87668C45.3566 -61.7954 71.3419 -116.433 71.5987 -116.979L72.691 -116.465C72.4329 -115.918 46.3825 -61.1381 -3.24894 -7.08634C-32.4088 24.6683 -63.8838 49.9684 -96.8025 68.1116C-137.938 90.7853 -181.453 102.281 -226.139 102.281Z" fill="#1F1F1F"/>
</g>
<mask id="mask9_4_1508" style="mask-type:luminance" maskUnits="userSpaceOnUse" x="-266" y="-138" width="784" height="470">
<path d="M-265.184 -137.021H517.804V331.334H-265.184V-137.021Z" fill="white"/>
</mask>
<g mask="url(#mask9_4_1508)">
<path d="M-220.575 105.144H-220.672V103.937H-220.576C-119.81 103.937 -44.2491 44.6953 1.4027 -5.01363C50.9197 -58.9323 76.9063 -113.57 77.1631 -114.116L78.2541 -113.601C77.9973 -113.055 51.9469 -58.275 2.31411 -4.22329C-26.8444 27.5313 -58.3195 52.8315 -91.2381 70.9747C-132.374 93.6484 -175.89 105.144 -220.575 105.144Z" fill="#1F1F1F"/>
</g>
<mask id="mask10_4_1508" style="mask-type:luminance" maskUnits="userSpaceOnUse" x="-266" y="-138" width="784" height="470">
<path d="M-265.184 -137.021H517.804V331.334H-265.184V-137.021Z" fill="white"/>
</mask>
<g mask="url(#mask10_4_1508)">
<path d="M-215.011 108.007H-215.108V106.801H-215.012C-114.246 106.801 -38.6853 47.5584 6.96648 -2.15044C56.4835 -56.0691 82.47 -110.706 82.7268 -111.253L83.8179 -110.738C83.5611 -110.191 57.5106 -55.4119 7.87789 -1.3601C-21.2807 30.3945 -52.7557 55.6947 -85.6743 73.8379C-126.81 96.5116 -170.327 108.007 -215.011 108.007Z" fill="#1F1F1F"/>
</g>
<mask id="mask11_4_1508" style="mask-type:luminance" maskUnits="userSpaceOnUse" x="-266" y="-138" width="784" height="470">
<path d="M-265.184 -137.021H517.804V331.334H-265.184V-137.021Z" fill="white"/>
</mask>
<g mask="url(#mask11_4_1508)">
<path d="M-209.447 110.87H-209.544V109.664H-209.447C-108.682 109.664 -33.1215 50.4215 12.5303 0.712598C62.0473 -53.2061 88.0339 -107.843 88.2907 -108.39L89.3817 -107.875C89.1249 -107.328 63.0745 -52.5488 13.4417 1.50294C-15.7168 33.2575 -47.1918 58.559 -80.1105 76.7009C-121.246 99.3746 -164.763 110.87 -209.447 110.87Z" fill="#1F1F1F"/>
</g>
<mask id="mask12_4_1508" style="mask-type:luminance" maskUnits="userSpaceOnUse" x="-266" y="-138" width="784" height="470">
<path d="M-265.184 -137.021H517.804V331.334H-265.184V-137.021Z" fill="white"/>
</mask>
<g mask="url(#mask12_4_1508)">
<path d="M-203.884 113.734H-203.981L-203.98 112.527H-203.884C-103.119 112.527 -27.5584 53.284 18.0948 3.5751C67.6118 -50.3423 93.597 -104.981 93.8538 -105.526L94.9462 -105.013C94.688 -104.466 68.6389 -49.6863 19.0062 4.36677C-10.1524 36.12 -41.6287 61.4215 -74.546 79.5648C-115.682 102.238 -159.2 113.734 -203.884 113.734Z" fill="#1F1F1F"/>
</g>
<mask id="mask13_4_1508" style="mask-type:luminance" maskUnits="userSpaceOnUse" x="-266" y="-138" width="784" height="470">
<path d="M-265.184 -137.021H517.804V331.334H-265.184V-137.021Z" fill="white"/>
</mask>
<g mask="url(#mask13_4_1508)">
<path d="M-198.32 116.597H-198.417L-198.416 115.391H-198.322C-97.5553 115.391 -21.9945 56.1471 23.6586 6.43818C73.1756 -47.4792 99.1609 -102.118 99.4177 -102.663L100.51 -102.15C100.252 -101.603 74.2028 -46.8232 24.5714 7.22985C-4.58851 38.9831 -36.0648 64.2846 -68.9821 82.4278C-110.118 105.102 -153.636 116.597 -198.32 116.597Z" fill="#1F1F1F"/>
</g>
<mask id="mask14_4_1508" style="mask-type:luminance" maskUnits="userSpaceOnUse" x="-266" y="-138" width="784" height="470">
<path d="M-265.184 -137.021H517.804V331.334H-265.184V-137.021Z" fill="white"/>
</mask>
<g mask="url(#mask14_4_1508)">
<path d="M-192.757 119.461H-192.854L-192.852 118.254H-192.757C-91.9915 118.254 -16.4307 59.0103 29.2224 9.30137C78.7394 -44.616 104.725 -99.2545 104.981 -99.8L106.074 -99.2864C105.816 -98.7396 79.7665 -43.96 30.1351 10.0917C0.975241 41.8463 -30.5011 67.1478 -63.4184 85.291C-104.554 107.965 -148.072 119.461 -192.757 119.461Z" fill="#1F1F1F"/>
</g>
<mask id="mask15_4_1508" style="mask-type:luminance" maskUnits="userSpaceOnUse" x="-266" y="-138" width="784" height="470">
<path d="M-265.184 -137.021H517.804V331.334H-265.184V-137.021Z" fill="white"/>
</mask>
<g mask="url(#mask15_4_1508)">
<path d="M-187.193 122.324H-187.289V121.117H-187.193C-86.4278 121.117 -10.867 61.8733 34.7862 12.1644C84.3032 -41.753 110.29 -96.3915 110.545 -96.937L111.638 -96.4234C111.379 -95.8766 85.3303 -41.097 35.6989 12.9547C6.539 44.7093 -24.9373 70.0108 -57.8546 88.154C-98.9906 110.828 -142.508 122.324 -187.193 122.324Z" fill="#1F1F1F"/>
</g>
<mask id="mask16_4_1508" style="mask-type:luminance" maskUnits="userSpaceOnUse" x="-266" y="-138" width="784" height="470">
<path d="M-265.184 -137.021H517.804V331.334H-265.184V-137.021Z" fill="white"/>
</mask>
<g mask="url(#mask16_4_1508)">
<path d="M-181.628 125.187H-181.725L-181.724 123.98H-181.63C-80.8645 123.98 -5.30245 64.7365 40.3494 15.0276C89.8663 -38.8898 115.854 -93.5283 116.11 -94.0738L117.201 -93.5602C116.945 -93.0134 90.8949 -38.2325 41.2621 15.8179C12.1035 47.5725 -19.3728 72.874 -52.2901 91.0172C-93.4261 113.691 -136.944 125.187 -181.628 125.187Z" fill="#1F1F1F"/>
</g>
<mask id="mask17_4_1508" style="mask-type:luminance" maskUnits="userSpaceOnUse" x="-266" y="-138" width="784" height="470">
<path d="M-265.184 -137.021H517.804V331.334H-265.184V-137.021Z" fill="white"/>
</mask>
<g mask="url(#mask17_4_1508)">
<path d="M-176.064 128.05H-176.162L-176.16 126.844H-176.064C-75.2995 126.844 0.262603 67.6002 45.9131 17.8913C95.4301 -36.0261 121.418 -90.6646 121.673 -91.2115L122.766 -90.6965C122.509 -90.1497 96.4586 -35.3701 46.8258 18.6816C17.6673 50.4362 -13.8077 75.7377 -46.7264 93.8809C-87.8624 116.553 -131.38 128.05 -176.064 128.05Z" fill="#1F1F1F"/>
</g>
<mask id="mask18_4_1508" style="mask-type:luminance" maskUnits="userSpaceOnUse" x="-266" y="-138" width="784" height="470">
<path d="M-265.184 -137.021H517.804V331.334H-265.184V-137.021Z" fill="white"/>
</mask>
<g mask="url(#mask18_4_1508)">
<path d="M-170.501 130.913H-170.598L-170.596 129.706H-170.501C-69.7356 129.706 5.82648 70.4627 51.4769 20.7538C100.995 -33.1636 126.982 -87.8021 127.239 -88.3476L128.33 -87.834C128.073 -87.2872 102.022 -32.5063 52.3897 21.5442C23.2311 53.2988 -8.24387 78.6003 -41.1625 96.7435C-82.2985 119.417 -125.816 130.913 -170.501 130.913Z" fill="#1F1F1F"/>
</g>
<mask id="mask19_4_1508" style="mask-type:luminance" maskUnits="userSpaceOnUse" x="-266" y="-138" width="784" height="470">
<path d="M-265.184 -137.021H517.804V331.334H-265.184V-137.021Z" fill="white"/>
</mask>
<g mask="url(#mask19_4_1508)">
<path d="M-164.937 133.776H-165.033V132.569H-164.937C-64.1718 132.569 11.3903 73.3259 57.0407 23.617C106.558 -30.3004 132.546 -84.9389 132.801 -85.4844L133.893 -84.9708C133.637 -84.424 107.586 -29.6431 57.9535 24.4073C28.7949 56.1633 -2.68009 81.4634 -35.5987 99.6067C-76.7347 122.28 -120.252 133.776 -164.937 133.776Z" fill="#1F1F1F"/>
</g>
<mask id="mask20_4_1508" style="mask-type:luminance" maskUnits="userSpaceOnUse" x="-266" y="-138" width="784" height="470">
<path d="M-265.184 -137.021H517.804V331.334H-265.184V-137.021Z" fill="white"/>
</mask>
<g mask="url(#mask20_4_1508)">
<path d="M-159.372 136.64H-159.47L-159.468 135.433H-159.374C-58.6088 135.433 16.9533 76.1896 62.6051 26.4807C112.122 -27.4366 138.109 -82.0752 138.365 -82.622L139.458 -82.1071C139.2 -81.5602 113.149 -26.7807 63.5179 27.2711C34.3593 59.0257 2.88297 84.3272 -30.0357 102.47C-71.1716 125.143 -114.688 136.64 -159.372 136.64Z" fill="#1F1F1F"/>
</g>
<mask id="mask21_4_1508" style="mask-type:luminance" maskUnits="userSpaceOnUse" x="-266" y="-138" width="784" height="470">
<path d="M-265.184 -137.021H517.804V331.334H-265.184V-137.021Z" fill="white"/>
</mask>
<g mask="url(#mask21_4_1508)">
<path d="M-153.809 139.502H-153.905V138.296H-153.809C-53.0442 138.296 22.5179 79.0521 68.1697 29.3432C117.687 -24.5741 143.673 -79.2126 143.93 -79.7582L145.021 -79.2446C144.764 -78.6977 118.714 -23.9168 69.0811 30.1336C39.9226 61.8895 8.44753 87.1897 -24.4711 105.333C-65.6071 128.007 -109.125 139.502 -153.809 139.502Z" fill="#1F1F1F"/>
</g>
<mask id="mask22_4_1508" style="mask-type:luminance" maskUnits="userSpaceOnUse" x="-266" y="-138" width="784" height="470">
<path d="M-265.184 -137.021H517.804V331.334H-265.184V-137.021Z" fill="white"/>
</mask>
<g mask="url(#mask22_4_1508)">
<path d="M-148.245 142.366H-148.342L-148.341 141.159H-148.246C-47.4799 141.159 28.0809 81.9158 73.7341 32.2069C123.251 -21.7104 149.236 -76.3489 149.493 -76.8945L150.585 -76.3809C150.327 -75.834 124.278 -21.0545 74.6455 32.9973C45.4869 64.7519 14.0106 90.0534 -18.9081 108.197C-60.0427 130.869 -103.56 142.366 -148.245 142.366Z" fill="#1F1F1F"/>
</g>
<mask id="mask23_4_1508" style="mask-type:luminance" maskUnits="userSpaceOnUse" x="-266" y="-138" width="784" height="470">
<path d="M-265.184 -137.021H517.804V331.334H-265.184V-137.021Z" fill="white"/>
</mask>
<g mask="url(#mask23_4_1508)">
<path d="M-142.681 145.229H-142.778L-142.777 144.023H-142.682C-41.9174 144.023 33.6447 84.779 79.2978 35.0701C128.815 -18.8472 154.8 -73.4858 155.057 -74.0326L156.149 -73.5177C155.891 -72.9708 129.842 -18.1913 80.2092 35.8605C51.0507 67.6151 19.5743 92.9166 -13.343 111.06C-54.4789 133.732 -97.9966 145.229 -142.681 145.229Z" fill="#1F1F1F"/>
</g>
<mask id="mask24_4_1508" style="mask-type:luminance" maskUnits="userSpaceOnUse" x="-266" y="-138" width="784" height="470">
<path d="M-265.184 -137.021H517.804V331.334H-265.184V-137.021Z" fill="white"/>
</mask>
<g mask="url(#mask24_4_1508)">
<path d="M-137.117 148.092H-137.214L-137.213 146.886H-137.117C-36.3536 146.886 39.2085 87.6421 84.8617 37.9332C134.379 -15.9842 160.364 -70.6227 160.621 -71.1682L161.713 -70.6546C161.455 -70.1078 135.406 -15.3282 85.7731 38.7235C56.6145 70.4782 25.1382 95.7797 -7.77911 113.923C-48.9151 136.595 -92.4327 148.092 -137.117 148.092Z" fill="#1F1F1F"/>
</g>
<mask id="mask25_4_1508" style="mask-type:luminance" maskUnits="userSpaceOnUse" x="-266" y="-138" width="784" height="470">
<path d="M-265.184 -137.021H517.804V331.334H-265.184V-137.021Z" fill="white"/>
</mask>
<g mask="url(#mask25_4_1508)">
<path d="M-131.553 150.956H-131.649V149.749H-131.553C-30.7885 149.749 44.7723 90.5053 90.4255 40.7964C139.942 -13.121 165.929 -67.7595 166.184 -68.305L167.277 -67.7914C167.019 -67.2446 140.97 -12.465 91.3369 41.5867C62.1783 73.3413 30.702 98.6428 -2.21533 116.786C-43.3513 139.458 -86.869 150.956 -131.553 150.956Z" fill="#1F1F1F"/>
</g>
<mask id="mask26_4_1508" style="mask-type:luminance" maskUnits="userSpaceOnUse" x="-266" y="-138" width="784" height="470">
<path d="M-265.184 -137.021H517.804V331.334H-265.184V-137.021Z" fill="white"/>
</mask>
<g mask="url(#mask26_4_1508)">
<path d="M-125.99 153.819H-126.085V152.612H-125.99C-25.2246 152.612 50.3362 93.3683 95.9893 43.6594C145.506 -10.2579 171.493 -64.8965 171.748 -65.442L172.842 -64.9284C172.584 -64.3816 146.533 -9.60199 96.9021 44.4498C67.7422 76.2044 36.2658 101.506 3.34853 119.649C-37.7875 142.323 -81.3038 153.819 -125.99 153.819Z" fill="#1F1F1F"/>
</g>
<mask id="mask27_4_1508" style="mask-type:luminance" maskUnits="userSpaceOnUse" x="-266" y="-138" width="784" height="470">
<path d="M-265.184 -137.021H517.804V331.334H-265.184V-137.021Z" fill="white"/>
</mask>
<g mask="url(#mask27_4_1508)">
<path d="M-120.425 156.682H-120.522L-120.521 155.475H-120.427C-19.6602 155.475 55.9019 96.2315 101.552 46.5226C151.069 -7.39476 177.057 -62.0333 177.313 -62.5788L178.404 -62.0652C178.147 -61.5184 152.098 -6.7388 102.465 47.3129C73.3065 79.0676 41.8315 104.369 8.91291 122.512C-32.2231 145.185 -75.7407 156.682 -120.425 156.682Z" fill="#1F1F1F"/>
</g>
<mask id="mask28_4_1508" style="mask-type:luminance" maskUnits="userSpaceOnUse" x="-266" y="-138" width="784" height="470">
<path d="M-265.184 -137.021H517.804V331.334H-265.184V-137.021Z" fill="white"/>
</mask>
<g mask="url(#mask28_4_1508)">
<path d="M-114.861 159.545H-114.959L-114.957 158.338H-114.861C-14.0964 158.338 61.4657 99.0947 107.116 49.3858C156.633 -4.53158 182.621 -59.1701 182.876 -59.7156L183.969 -59.202C183.712 -58.6552 157.662 -3.87563 108.029 50.1761C78.8703 81.9307 47.3953 107.232 14.4767 125.375C-26.6593 148.049 -70.1769 159.545 -114.861 159.545Z" fill="#1F1F1F"/>
</g>
<mask id="mask29_4_1508" style="mask-type:luminance" maskUnits="userSpaceOnUse" x="-266" y="-138" width="784" height="470">
<path d="M-265.184 -137.021H517.804V331.334H-265.184V-137.021Z" fill="white"/>
</mask>
<g mask="url(#mask29_4_1508)">
<path d="M-109.298 162.408H-109.393V161.201H-109.298C-8.53257 161.201 67.0295 101.958 112.68 52.2488C162.197 -1.66853 188.185 -56.3071 188.44 -56.8526L189.533 -56.339C189.276 -55.7921 163.226 -1.01258 113.593 53.0392C84.4342 84.7938 52.9592 110.095 20.0406 128.238C-21.0954 150.912 -64.6117 162.408 -109.298 162.408Z" fill="#1F1F1F"/>
</g>
<mask id="mask30_4_1508" style="mask-type:luminance" maskUnits="userSpaceOnUse" x="-266" y="-138" width="784" height="470">
<path d="M-265.184 -137.021H517.804V331.334H-265.184V-137.021Z" fill="white"/>
</mask>
<g mask="url(#mask30_4_1508)">
<path d="M-103.734 165.271H-103.831L-103.83 164.064H-103.734C-2.96884 164.064 72.5933 104.821 118.245 55.112C167.761 1.19466 193.749 -53.4439 194.005 -53.9894L195.096 -53.4758C194.84 -52.9289 168.789 1.85061 119.156 55.9037C89.9979 87.657 58.5229 112.958 25.6043 131.102C-15.5317 153.775 -59.048 165.271 -103.734 165.271Z" fill="#1F1F1F"/>
</g>
<mask id="mask31_4_1508" style="mask-type:luminance" maskUnits="userSpaceOnUse" x="-266" y="-138" width="784" height="470">
<path d="M-265.184 -137.021H517.804V331.334H-265.184V-137.021Z" fill="white"/>
</mask>
<g mask="url(#mask31_4_1508)">
<path d="M-98.17 168.134H-98.2658V166.927H-98.17C2.60833 166.927 78.1771 107.671 123.832 57.9498C173.342 4.03243 199.313 -50.5808 199.569 -51.1263L200.66 -50.6127C200.404 -50.0659 174.353 4.71366 124.72 58.7667C95.5618 90.52 64.0868 115.822 31.1681 133.965C-9.96784 156.638 -53.4841 168.134 -98.17 168.134Z" fill="#1F1F1F"/>
</g>
<mask id="mask32_4_1508" style="mask-type:luminance" maskUnits="userSpaceOnUse" x="-266" y="-138" width="784" height="470">
<path d="M-265.184 -137.021H517.804V331.334H-265.184V-137.021Z" fill="white"/>
</mask>
<g mask="url(#mask32_4_1508)">
<path d="M-92.6055 170.997H-92.7027L-92.7013 169.791H-92.6069C8.17143 169.791 83.7402 110.534 129.396 60.813C178.906 6.89562 204.876 -47.7176 205.132 -48.2631L206.225 -47.7496C205.967 -47.2027 179.916 7.57685 130.285 61.6299C101.126 93.3832 69.6499 118.685 36.7312 136.828C-4.40473 159.502 -47.921 170.997 -92.6055 170.997Z" fill="#1F1F1F"/>
</g>
<mask id="mask33_4_1508" style="mask-type:luminance" maskUnits="userSpaceOnUse" x="-266" y="-138" width="784" height="470">
<path d="M-265.184 -137.021H517.804V331.334H-265.184V-137.021Z" fill="white"/>
</mask>
<g mask="url(#mask33_4_1508)">
<path d="M-87.0418 173.86H-87.1389L-87.1376 172.654H-87.0431C13.7352 172.654 89.3039 113.397 134.96 63.676C184.47 9.75866 210.441 -44.8546 210.696 -45.4001L211.789 -44.8865C211.53 -44.3397 185.481 10.4399 135.849 64.493C106.69 96.2463 75.2136 121.548 42.2963 139.691C1.15902 162.365 -42.356 173.86 -87.0418 173.86Z" fill="#1F1F1F"/>
</g>
<mask id="mask34_4_1508" style="mask-type:luminance" maskUnits="userSpaceOnUse" x="-266" y="-138" width="784" height="470">
<path d="M-265.184 -137.021H517.804V331.334H-265.184V-137.021Z" fill="white"/>
</mask>
<g mask="url(#mask34_4_1508)">
<path d="M-81.4779 176.724H-81.5751L-81.5737 175.517H-81.4779C19.299 175.517 94.8678 116.26 140.524 66.5392C190.034 12.6218 216.005 -41.9914 216.26 -42.5369L217.352 -42.0233C217.094 -41.4765 191.045 13.3031 141.412 67.3561C112.254 99.1094 80.7775 124.411 47.8602 142.554C6.72286 165.228 -36.7921 176.724 -81.4779 176.724Z" fill="#1F1F1F"/>
</g>
<mask id="mask35_4_1508" style="mask-type:luminance" maskUnits="userSpaceOnUse" x="-266" y="-138" width="784" height="470">
<path d="M-265.184 -137.021H517.804V331.334H-265.184V-137.021Z" fill="white"/>
</mask>
<g mask="url(#mask35_4_1508)">
<path d="M-75.9142 179.587H-76.0099V178.38H-75.9142C24.8509 178.38 100.412 119.136 146.065 69.4275C195.582 15.5102 221.567 -39.1283 221.824 -39.6739L222.916 -39.1603C222.658 -38.6134 196.609 16.1661 146.976 70.2192C117.818 101.972 86.3413 127.274 53.424 145.417C12.288 168.091 -31.2283 179.587 -75.9142 179.587Z" fill="#1F1F1F"/>
</g>
<mask id="mask36_4_1508" style="mask-type:luminance" maskUnits="userSpaceOnUse" x="-266" y="-138" width="784" height="470">
<path d="M-265.184 -137.021H517.804V331.334H-265.184V-137.021Z" fill="white"/>
</mask>
<g mask="url(#mask36_4_1508)">
<path d="M-70.3503 182.45H-70.4461V181.243H-70.3503C30.4147 181.243 105.975 122 151.629 72.2907C201.146 18.3734 227.131 -36.2652 227.388 -36.8107L228.48 -36.2971C228.222 -35.7502 202.173 19.0293 152.541 73.0824C123.381 104.836 91.9065 130.137 58.9878 148.28C17.8518 170.954 -25.6645 182.45 -70.3503 182.45Z" fill="#1F1F1F"/>
</g>
<mask id="mask37_4_1508" style="mask-type:luminance" maskUnits="userSpaceOnUse" x="-266" y="-138" width="784" height="470">
<path d="M-265.184 -137.021H517.804V331.334H-265.184V-137.021Z" fill="white"/>
</mask>
<g mask="url(#mask37_4_1508)">
<path d="M-64.7859 185.313H-64.883L-64.8817 184.106H-64.7872C35.9791 184.106 111.541 124.863 157.192 75.1539C206.709 21.2365 232.697 -33.402 232.952 -33.9475L234.043 -33.4339C233.786 -32.8871 207.737 21.8925 158.104 75.9456C128.946 107.699 97.4708 133 64.5522 151.144C23.4162 173.817 -20.1014 185.313 -64.7859 185.313Z" fill="#1F1F1F"/>
</g>
<mask id="mask38_4_1508" style="mask-type:luminance" maskUnits="userSpaceOnUse" x="-266" y="-138" width="784" height="470">
<path d="M-265.184 -137.021H517.804V331.334H-265.184V-137.021Z" fill="white"/>
</mask>
<g mask="url(#mask38_4_1508)">
<path d="M-59.2221 188.176H-59.3193L-59.3179 186.969H-59.2235C41.5429 186.969 117.105 127.726 162.755 78.017C212.272 24.0996 238.26 -30.5389 238.516 -31.0844L239.607 -30.5708C239.351 -30.024 213.301 24.7556 163.668 78.8086C134.51 110.562 103.035 135.863 70.116 154.007C28.98 176.68 -14.5376 188.176 -59.2221 188.176Z" fill="#1F1F1F"/>
</g>
<mask id="mask39_4_1508" style="mask-type:luminance" maskUnits="userSpaceOnUse" x="-266" y="-138" width="784" height="470">
<path d="M-265.184 -137.021H517.804V331.334H-265.184V-137.021Z" fill="white"/>
</mask>
<g mask="url(#mask39_4_1508)">
<path d="M-53.6582 191.039H-53.7554L-53.754 189.833H-53.6596C47.1068 189.833 122.669 130.589 168.319 80.8802C217.836 26.9628 243.824 -27.6757 244.08 -28.2213L245.172 -27.7077C244.915 -27.1608 218.865 27.6187 169.232 81.6718C140.074 113.425 108.599 138.727 75.6799 156.87C34.5439 179.543 -8.97374 191.039 -53.6582 191.039Z" fill="#1F1F1F"/>
</g>
<mask id="mask40_4_1508" style="mask-type:luminance" maskUnits="userSpaceOnUse" x="-266" y="-138" width="784" height="470">
<path d="M-265.184 -137.021H517.804V331.334H-265.184V-137.021Z" fill="white"/>
</mask>
<g mask="url(#mask40_4_1508)">
<path d="M-48.0945 193.902H-48.1917L-48.1903 192.696H-48.0945C52.6824 192.696 128.251 133.439 173.907 83.7179C223.416 29.8006 249.388 -24.8127 249.645 -25.3582L250.736 -24.8446C250.479 -24.2978 224.429 30.4818 174.796 84.5349C145.637 116.288 114.162 141.59 81.2436 159.733C40.1076 182.407 -3.41002 193.902 -48.0945 193.902Z" fill="#1F1F1F"/>
</g>
<mask id="mask41_4_1508" style="mask-type:luminance" maskUnits="userSpaceOnUse" x="-266" y="-138" width="784" height="470">
<path d="M-265.184 -137.021H517.804V331.334H-265.184V-137.021Z" fill="white"/>
</mask>
<g mask="url(#mask41_4_1508)">
<path d="M-42.5301 196.766H-42.6273L-42.6259 195.559H-42.5315C58.2468 195.559 133.816 136.302 179.471 86.5811C228.982 32.6638 254.951 -21.9495 255.208 -22.495L256.3 -21.9814C256.042 -21.4346 229.992 33.345 180.36 87.3981C151.202 119.151 119.725 144.453 86.8067 162.596C45.6707 185.27 2.15437 196.766 -42.5301 196.766Z" fill="#1F1F1F"/>
</g>
<mask id="mask42_4_1508" style="mask-type:luminance" maskUnits="userSpaceOnUse" x="-266" y="-138" width="784" height="470">
<path d="M-265.184 -137.021H517.804V331.334H-265.184V-137.021Z" fill="white"/>
</mask>
<g mask="url(#mask42_4_1508)">
<path d="M-36.9663 199.629H-37.0634L-37.0621 198.422H-36.9676C63.8107 198.422 139.379 139.165 185.035 89.4442C234.546 35.5268 260.515 -19.0865 260.772 -19.632L261.864 -19.1184C261.606 -18.5715 235.555 36.208 185.924 90.2611C156.766 122.014 125.289 147.316 92.3705 165.459C51.2345 188.133 7.71825 199.629 -36.9663 199.629Z" fill="#1F1F1F"/>
</g>
<mask id="mask43_4_1508" style="mask-type:luminance" maskUnits="userSpaceOnUse" x="-266" y="-138" width="784" height="470">
<path d="M-265.184 -137.021H517.804V331.334H-265.184V-137.021Z" fill="white"/>
</mask>
<g mask="url(#mask43_4_1508)">
<path d="M-31.4025 202.492H-31.4983V201.285H-31.4039C69.3745 201.285 144.943 142.028 190.599 92.3073C240.109 38.39 266.079 -16.2233 266.335 -16.7688L267.428 -16.2552C267.17 -15.7084 241.121 39.0712 191.488 93.1243C162.329 124.878 130.853 150.179 97.9356 168.322C56.7983 190.996 13.2833 202.492 -31.4025 202.492Z" fill="#1F1F1F"/>
</g>
<mask id="mask44_4_1508" style="mask-type:luminance" maskUnits="userSpaceOnUse" x="-266" y="-138" width="784" height="470">
<path d="M-265.184 -137.021H517.804V331.334H-265.184V-137.021Z" fill="white"/>
</mask>
<g mask="url(#mask44_4_1508)">
<path d="M-25.8387 205.355H-25.9344V204.148H-25.84C74.925 204.148 150.487 144.905 196.14 95.1957C245.657 41.2783 271.643 -13.3602 271.899 -13.9058L272.992 -13.3922C272.734 -12.8453 246.683 41.9342 197.052 95.9873C167.893 127.741 136.417 153.042 103.499 171.185C62.3622 193.859 18.8472 205.355 -25.8387 205.355Z" fill="#1F1F1F"/>
</g>
<mask id="mask45_4_1508" style="mask-type:luminance" maskUnits="userSpaceOnUse" x="-266" y="-138" width="784" height="470">
<path d="M-265.184 -137.021H517.804V331.334H-265.184V-137.021Z" fill="white"/>
</mask>
<g mask="url(#mask45_4_1508)">
<path d="M-20.2735 208.218H-20.3707V207.011H-20.2749C80.5034 207.011 156.071 147.754 201.728 98.0336C251.237 44.1162 277.206 -10.497 277.463 -11.0426L278.555 -10.529C278.297 -9.98212 252.248 44.7988 202.615 98.8505C173.457 130.605 141.981 155.905 109.063 174.049C67.9273 196.722 24.411 208.218 -20.2735 208.218Z" fill="#1F1F1F"/>
</g>
<mask id="mask46_4_1508" style="mask-type:luminance" maskUnits="userSpaceOnUse" x="-266" y="-138" width="784" height="470">
<path d="M-265.184 -137.021H517.804V331.334H-265.184V-137.021Z" fill="white"/>
</mask>
<g mask="url(#mask46_4_1508)">
<path d="M-14.7098 211.081H-14.8069V209.874H-14.7111C86.0539 209.874 161.615 150.631 207.268 100.922C256.785 47.0047 282.77 -7.63386 283.027 -8.17938L284.119 -7.66579C283.861 -7.11894 257.812 47.6619 208.18 101.714C179.021 133.468 147.544 158.77 114.627 176.912C73.4897 199.585 29.9747 211.081 -14.7098 211.081Z" fill="#1F1F1F"/>
</g>
<mask id="mask47_4_1508" style="mask-type:luminance" maskUnits="userSpaceOnUse" x="-266" y="-138" width="784" height="470">
<path d="M-265.184 -137.021H517.804V331.334H-265.184V-137.021Z" fill="white"/>
</mask>
<g mask="url(#mask47_4_1508)">
<path d="M-9.14594 213.944H-9.24307V212.737H-9.14727C91.6177 212.737 167.18 153.494 212.832 103.785C262.349 49.8677 288.334 -4.7695 288.591 -5.31635L289.683 -4.80144C289.425 -4.25459 263.376 50.525 213.744 104.577C184.584 136.331 153.109 161.633 120.191 179.775C79.0549 202.448 35.5386 213.944 -9.14594 213.944Z" fill="#1F1F1F"/>
</g>
<mask id="mask48_4_1508" style="mask-type:luminance" maskUnits="userSpaceOnUse" x="-266" y="-138" width="784" height="470">
<path d="M-265.184 -137.021H517.804V331.334H-265.184V-137.021Z" fill="white"/>
</mask>
<g mask="url(#mask48_4_1508)">
<path d="M-3.58216 216.807H-3.67929V215.601H-3.58349C97.1815 215.601 172.742 156.357 218.395 106.648C267.912 52.7309 293.899 -1.90763 294.154 -2.45315L295.247 -1.93956C294.99 -1.39271 268.94 53.3882 219.308 107.44C190.148 139.195 158.672 164.496 125.755 182.638C84.6186 205.312 41.1023 216.807 -3.58216 216.807Z" fill="#1F1F1F"/>
</g>
<mask id="mask49_4_1508" style="mask-type:luminance" maskUnits="userSpaceOnUse" x="-266" y="-138" width="784" height="470">
<path d="M-265.184 -137.021H517.804V331.334H-265.184V-137.021Z" fill="white"/>
</mask>
<g mask="url(#mask49_4_1508)">
<path d="M1.98156 219.671H1.88443L1.88576 218.464H1.98023C102.745 218.464 178.307 159.22 223.959 109.511C273.476 55.5939 299.463 0.956757 299.718 0.409906L300.812 0.924815C300.554 1.47034 274.503 56.2512 224.872 110.303C195.712 142.058 164.237 167.359 131.318 185.501C90.1824 208.175 46.6674 219.671 1.98156 219.671Z" fill="#1F1F1F"/>
</g>
<mask id="mask50_4_1508" style="mask-type:luminance" maskUnits="userSpaceOnUse" x="-266" y="-138" width="784" height="470">
<path d="M-265.184 -137.021H517.804V331.334H-265.184V-137.021Z" fill="white"/>
</mask>
<g mask="url(#mask50_4_1508)">
<path d="M7.54546 222.534H7.44833L7.44966 221.328H7.54546C108.31 221.328 183.871 162.084 229.523 112.375C279.041 58.4578 305.027 3.81926 305.283 3.27374L306.376 3.78733C306.118 4.33418 280.067 59.1151 230.436 113.165C201.276 144.92 169.801 170.222 136.882 188.365C95.7463 211.037 52.2313 222.534 7.54546 222.534Z" fill="#1F1F1F"/>
</g>
<mask id="mask51_4_1508" style="mask-type:luminance" maskUnits="userSpaceOnUse" x="-266" y="-138" width="784" height="470">
<path d="M-265.184 -137.021H517.804V331.334H-265.184V-137.021Z" fill="white"/>
</mask>
<g mask="url(#mask51_4_1508)">
<path d="M13.1092 225.397H13.0121L13.0134 224.191H13.1092C113.874 224.191 189.435 164.948 235.088 115.239C284.605 61.3202 310.59 6.68298 310.847 6.13613L311.939 6.65104C311.681 7.19789 285.631 61.9775 235.999 116.029C206.84 147.784 175.365 173.085 142.446 191.227C101.31 213.901 57.795 225.397 13.1092 225.397Z" fill="#1F1F1F"/>
</g>
<mask id="mask52_4_1508" style="mask-type:luminance" maskUnits="userSpaceOnUse" x="-266" y="-138" width="784" height="470">
<path d="M-265.184 -137.021H517.804V331.334H-265.184V-137.021Z" fill="white"/>
</mask>
<g mask="url(#mask52_4_1508)">
<path d="M18.673 228.261H18.5759L18.5772 227.054H18.673C119.45 227.054 195.019 167.797 240.675 118.076C290.184 64.1588 316.154 9.54551 316.411 8.99999L317.503 9.51358C317.245 10.0604 291.195 64.8413 241.563 118.892C212.403 150.648 180.928 175.948 148.01 194.091C106.874 216.763 63.3589 228.261 18.673 228.261Z" fill="#1F1F1F"/>
</g>
<mask id="mask53_4_1508" style="mask-type:luminance" maskUnits="userSpaceOnUse" x="-266" y="-138" width="784" height="470">
<path d="M-265.184 -137.021H517.804V331.334H-265.184V-137.021Z" fill="white"/>
</mask>
<g mask="url(#mask53_4_1508)">
<path d="M24.2381 231.123H24.141V229.918H24.2368C125.014 229.918 200.582 170.659 246.238 120.939C295.749 67.0211 321.718 12.4092 321.975 11.8624L323.067 12.3773C322.809 12.9228 296.758 67.7037 247.127 121.755C217.969 153.51 186.492 178.812 153.575 196.953C112.438 219.627 68.9226 231.123 24.2381 231.123Z" fill="#1F1F1F"/>
</g>
<mask id="mask54_4_1508" style="mask-type:luminance" maskUnits="userSpaceOnUse" x="-266" y="-138" width="784" height="470">
<path d="M-265.184 -137.021H517.804V331.334H-265.184V-137.021Z" fill="white"/>
</mask>
<g mask="url(#mask54_4_1508)">
<path d="M29.8007 233.987H29.7035L29.7049 232.78H29.8007C130.566 232.78 206.126 173.537 251.78 123.828C301.297 69.9103 327.282 15.2717 327.539 14.7262L328.631 15.2398C328.373 15.7867 302.322 70.5675 252.691 124.618C223.531 156.373 192.056 181.674 159.137 199.817C118.001 222.49 74.4865 233.987 29.8007 233.987Z" fill="#1F1F1F"/>
</g>
<mask id="mask55_4_1508" style="mask-type:luminance" maskUnits="userSpaceOnUse" x="-266" y="-138" width="784" height="470">
<path d="M-265.184 -137.021H517.804V331.334H-265.184V-137.021Z" fill="white"/>
</mask>
<g mask="url(#mask55_4_1508)">
<path d="M35.3644 236.851H35.2686V235.644H35.3631C136.141 235.644 211.71 176.387 257.366 126.665C306.875 72.7487 332.846 18.1354 333.102 17.5886L334.195 18.1035C333.937 18.649 307.888 73.4299 258.255 127.482C229.096 159.236 197.62 184.538 164.703 202.681C123.565 225.353 80.049 236.851 35.3644 236.851Z" fill="#1F1F1F"/>
</g>
<mask id="mask56_4_1508" style="mask-type:luminance" maskUnits="userSpaceOnUse" x="-266" y="-138" width="784" height="470">
<path d="M-265.184 -137.021H517.804V331.334H-265.184V-137.021Z" fill="white"/>
</mask>
<g mask="url(#mask56_4_1508)">
<path d="M40.9282 239.713H40.8324V238.508H40.9268C141.692 238.508 217.254 179.263 262.907 129.554C312.424 75.6365 338.409 20.998 338.666 20.4524L339.758 20.966C339.5 21.5129 313.451 76.2938 263.819 130.344C234.659 162.099 203.184 187.4 170.266 205.544C129.129 228.217 85.614 239.713 40.9282 239.713Z" fill="#1F1F1F"/>
</g>
<mask id="mask57_4_1508" style="mask-type:luminance" maskUnits="userSpaceOnUse" x="-266" y="-138" width="784" height="470">
<path d="M-265.184 -137.021H517.804V331.334H-265.184V-137.021Z" fill="white"/>
</mask>
<g mask="url(#mask57_4_1508)">
<path d="M46.492 242.577H46.3962V241.37H46.4907C147.257 241.37 222.818 182.126 268.471 132.418C317.988 78.5002 343.973 23.8617 344.23 23.3148L345.322 23.8297C345.064 24.3753 319.015 79.1562 269.382 133.208C240.224 164.963 208.747 190.264 175.83 208.407C134.694 231.08 91.1779 242.577 46.492 242.577Z" fill="#1F1F1F"/>
</g>
<mask id="mask58_4_1508" style="mask-type:luminance" maskUnits="userSpaceOnUse" x="-266" y="-138" width="784" height="470">
<path d="M-265.184 -137.021H517.804V331.334H-265.184V-137.021Z" fill="white"/>
</mask>
<g mask="url(#mask58_4_1508)">
<path d="M52.0558 245.439H51.96V244.234H52.0558C152.821 244.234 228.382 184.989 274.035 135.28C323.552 81.3627 349.538 26.7242 349.794 26.1787L350.886 26.6923C350.629 27.2391 324.579 82.02 274.947 136.07C245.788 167.826 214.311 193.127 181.394 211.271C140.258 233.943 96.7416 245.439 52.0558 245.439Z" fill="#1F1F1F"/>
</g>
<mask id="mask59_4_1508" style="mask-type:luminance" maskUnits="userSpaceOnUse" x="-266" y="-138" width="784" height="470">
<path d="M-265.184 -137.021H517.804V331.334H-265.184V-137.021Z" fill="white"/>
</mask>
<g mask="url(#mask59_4_1508)">
<path d="M57.6196 248.303H57.5238V247.096H57.6196C158.385 247.096 233.947 187.853 279.599 138.144C329.116 84.2266 355.102 29.588 355.358 29.0412L356.451 29.5561C356.193 30.1016 330.143 84.8825 280.511 138.934C251.351 170.689 219.876 195.99 186.958 214.134C145.822 236.806 102.305 248.303 57.6196 248.303Z" fill="#1F1F1F"/>
</g>
<mask id="mask60_4_1508" style="mask-type:luminance" maskUnits="userSpaceOnUse" x="-266" y="-138" width="784" height="470">
<path d="M-265.184 -137.021H517.804V331.334H-265.184V-137.021Z" fill="white"/>
</mask>
<g mask="url(#mask60_4_1508)">
<path d="M63.1847 251.166H63.0876L63.0889 249.96H63.1834C163.96 249.96 239.529 190.703 285.186 140.981C334.695 87.0637 360.666 32.4504 360.921 31.9049L362.014 32.4185C361.757 32.9654 335.706 87.7462 286.075 141.797C256.915 173.553 225.44 198.853 192.522 216.997C151.386 239.67 107.869 251.166 63.1847 251.166Z" fill="#1F1F1F"/>
</g>
<mask id="mask61_4_1508" style="mask-type:luminance" maskUnits="userSpaceOnUse" x="-266" y="-138" width="784" height="470">
<path d="M-265.184 -137.021H517.804V331.334H-265.184V-137.021Z" fill="white"/>
</mask>
<g mask="url(#mask61_4_1508)">
<path d="M68.7485 254.029H68.6513L68.6527 252.823H68.7471C169.512 252.823 245.074 193.579 290.726 143.87C340.243 89.9528 366.23 35.3143 366.485 34.7688L367.579 35.2824C367.321 35.8292 341.27 90.6088 291.639 144.662C262.479 176.415 231.004 201.717 198.085 219.86C156.949 242.532 113.433 254.029 68.7485 254.029Z" fill="#1F1F1F"/>
</g>
<mask id="mask62_4_1508" style="mask-type:luminance" maskUnits="userSpaceOnUse" x="-266" y="-138" width="784" height="470">
<path d="M-265.184 -137.021H517.804V331.334H-265.184V-137.021Z" fill="white"/>
</mask>
<g mask="url(#mask62_4_1508)">
<path d="M74.3123 256.892H74.2152L74.2165 255.686H74.311C175.076 255.686 250.638 196.441 296.29 146.734C345.807 92.8152 371.793 38.178 372.05 37.6312L373.143 38.1461C372.885 38.6916 346.834 93.4725 297.203 147.524C268.043 179.279 236.568 204.579 203.649 222.722C162.513 245.396 118.997 256.892 74.3123 256.892Z" fill="#1F1F1F"/>
</g>
<mask id="mask63_4_1508" style="mask-type:luminance" maskUnits="userSpaceOnUse" x="-266" y="-138" width="784" height="470">
<path d="M-265.184 -137.021H517.804V331.334H-265.184V-137.021Z" fill="white"/>
</mask>
<g mask="url(#mask63_4_1508)">
<path d="M79.8761 259.756H79.779L79.7803 258.549H79.8748C180.64 258.549 256.202 199.305 301.855 149.596C351.372 95.679 377.357 41.0405 377.614 40.495L378.706 41.0086C378.448 41.5554 352.398 96.335 302.766 150.388C273.607 182.141 242.132 207.443 209.213 225.586C168.077 248.258 124.561 259.756 79.8761 259.756Z" fill="#1F1F1F"/>
</g>
<mask id="mask64_4_1508" style="mask-type:luminance" maskUnits="userSpaceOnUse" x="-266" y="-138" width="784" height="470">
<path d="M-265.184 -137.021H517.804V331.334H-265.184V-137.021Z" fill="white"/>
</mask>
<g mask="url(#mask64_4_1508)">
<path d="M85.4398 262.618H85.3427L85.344 261.413H85.4385C186.217 261.413 261.786 202.154 307.441 152.435C356.95 98.5175 382.921 43.9042 383.178 43.3574L384.27 43.8723C384.012 44.4178 357.962 99.1987 308.33 153.25C279.17 185.005 247.695 210.305 214.777 228.448C173.641 251.122 130.124 262.618 85.4398 262.618Z" fill="#1F1F1F"/>
</g>
<mask id="mask65_4_1508" style="mask-type:luminance" maskUnits="userSpaceOnUse" x="-266" y="-138" width="784" height="470">
<path d="M-265.184 -137.021H517.804V331.334H-265.184V-137.021Z" fill="white"/>
</mask>
<g mask="url(#mask65_4_1508)">
<path d="M91.0037 265.482H90.9066L90.9079 264.275H91.0024C191.781 264.275 267.349 205.018 313.005 155.297C362.514 101.38 388.485 46.7668 388.742 46.2212L389.834 46.7348C389.576 47.2817 363.527 102.061 313.894 156.114C284.734 187.868 253.259 213.169 220.342 231.312C179.205 253.985 135.688 265.482 91.0037 265.482Z" fill="#1F1F1F"/>
</g>
<mask id="mask66_4_1508" style="mask-type:luminance" maskUnits="userSpaceOnUse" x="-266" y="-138" width="784" height="470">
<path d="M-265.184 -137.021H517.804V331.334H-265.184V-137.021Z" fill="white"/>
</mask>
<g mask="url(#mask66_4_1508)">
<path d="M96.5675 268.344H96.4717V267.139H96.5661C197.344 267.139 272.913 207.882 318.569 158.161C368.078 104.244 394.05 49.6306 394.305 49.0838L395.398 49.5987C395.14 50.1455 369.091 104.925 319.458 158.977C290.298 190.731 258.823 216.032 225.906 234.175C184.768 256.849 141.253 268.344 96.5675 268.344Z" fill="#1F1F1F"/>
</g>
<mask id="mask67_4_1508" style="mask-type:luminance" maskUnits="userSpaceOnUse" x="-266" y="-138" width="784" height="470">
<path d="M-265.184 -137.021H517.804V331.334H-265.184V-137.021Z" fill="white"/>
</mask>
<g mask="url(#mask67_4_1508)">
<path d="M102.131 271.208H102.036V270.001H102.13C202.908 270.001 278.477 210.744 324.134 161.024C373.642 107.106 399.614 52.493 399.869 51.9475L400.962 52.4611C400.704 53.0079 374.654 107.787 325.022 161.841C295.862 193.594 264.387 218.895 231.469 237.039C190.333 259.711 146.817 271.208 102.131 271.208Z" fill="#1F1F1F"/>
</g>
<mask id="mask68_4_1508" style="mask-type:luminance" maskUnits="userSpaceOnUse" x="-266" y="-138" width="784" height="470">
<path d="M-265.184 -137.021H517.804V331.334H-265.184V-137.021Z" fill="white"/>
</mask>
<g mask="url(#mask68_4_1508)">
<path d="M107.695 274.071H107.599V272.865H107.695C208.46 272.865 284.021 213.622 329.674 163.913C379.191 109.994 405.176 55.3568 405.433 54.81L406.525 55.3249C406.267 55.8718 380.218 110.651 330.587 164.703C301.427 196.458 269.951 221.759 237.033 239.901C195.897 262.575 152.381 274.071 107.695 274.071Z" fill="#1F1F1F"/>
</g>
<mask id="mask69_4_1508" style="mask-type:luminance" maskUnits="userSpaceOnUse" x="-266" y="-138" width="784" height="470">
<path d="M-265.184 -137.021H517.804V331.334H-265.184V-137.021Z" fill="white"/>
</mask>
<g mask="url(#mask69_4_1508)">
<path d="M113.259 276.934H113.163V275.727H113.259C214.024 275.727 289.586 216.484 335.238 166.775C384.755 112.858 410.741 58.2192 410.997 57.6737L412.089 58.1873C411.831 58.7341 385.782 113.514 336.15 167.567C306.991 199.32 275.516 224.622 242.597 242.765C201.461 265.437 157.945 276.934 113.259 276.934Z" fill="#1F1F1F"/>
</g>
<mask id="mask70_4_1508" style="mask-type:luminance" maskUnits="userSpaceOnUse" x="-266" y="-138" width="784" height="470">
<path d="M-265.184 -137.021H517.804V331.334H-265.184V-137.021Z" fill="white"/>
</mask>
<g mask="url(#mask70_4_1508)">
<path d="M118.823 279.798H118.727L118.728 278.591H118.823C219.588 278.591 295.15 219.348 340.802 169.639C390.319 115.72 416.305 61.0831 416.561 60.5362L417.653 61.0512C417.396 61.598 391.346 116.378 341.714 170.429C312.554 202.184 281.079 227.485 248.161 245.627C207.025 268.301 163.509 279.798 118.823 279.798Z" fill="#1F1F1F"/>
</g>
<mask id="mask71_4_1508" style="mask-type:luminance" maskUnits="userSpaceOnUse" x="-266" y="-138" width="784" height="470">
<path d="M-265.184 -137.021H517.804V331.334H-265.184V-137.021Z" fill="white"/>
</mask>
<g mask="url(#mask71_4_1508)">
<path d="M124.386 282.661H124.291V281.455H124.386C225.151 281.455 300.714 222.21 346.365 172.501C395.882 118.584 421.869 63.9454 422.124 63.3999L423.218 63.9135C422.96 64.4604 396.909 119.24 347.278 173.293C318.118 205.046 286.643 230.348 253.725 248.491C212.589 271.163 169.072 282.661 124.386 282.661Z" fill="#1F1F1F"/>
</g>
<mask id="mask72_4_1508" style="mask-type:luminance" maskUnits="userSpaceOnUse" x="-266" y="-138" width="784" height="470">
<path d="M-265.184 -137.021H517.804V331.334H-265.184V-137.021Z" fill="white"/>
</mask>
<g mask="url(#mask72_4_1508)">
<path d="M129.95 285.524H129.854L129.856 284.318H129.95C230.727 284.318 306.296 225.061 351.953 175.34C401.461 121.423 427.433 66.8093 427.69 66.2638L428.782 66.7774C428.524 67.3242 402.473 122.104 352.842 176.156C323.682 207.91 292.207 233.212 259.288 251.354C218.152 274.027 174.636 285.524 129.95 285.524Z" fill="#1F1F1F"/>
</g>
<mask id="mask73_4_1508" style="mask-type:luminance" maskUnits="userSpaceOnUse" x="-266" y="-138" width="784" height="470">
<path d="M-265.184 -137.021H517.804V331.334H-265.184V-137.021Z" fill="white"/>
</mask>
<g mask="url(#mask73_4_1508)">
<path d="M135.515 288.387H135.418L135.42 287.181H135.514C236.292 287.181 311.861 227.923 357.517 178.202C407.026 124.285 432.997 69.6717 433.253 69.1262L434.346 69.6397C434.088 70.1866 408.037 124.966 358.406 179.019C329.246 210.773 297.771 236.074 264.852 254.217C223.716 276.89 180.2 288.387 135.515 288.387Z" fill="#1F1F1F"/>
</g>
<mask id="mask74_4_1508" style="mask-type:luminance" maskUnits="userSpaceOnUse" x="-266" y="-138" width="784" height="470">
<path d="M-265.184 -137.021H517.804V331.334H-265.184V-137.021Z" fill="white"/>
</mask>
<g mask="url(#mask74_4_1508)">
<path d="M141.079 291.251H140.982L140.983 290.044H141.078C241.856 290.044 317.425 230.787 363.081 181.066C412.59 127.149 438.56 72.5355 438.817 71.9887L439.909 72.5036C439.651 73.0504 413.601 127.83 363.969 181.882C334.81 213.636 303.335 238.938 270.416 257.08C229.28 279.753 185.764 291.251 141.079 291.251Z" fill="#1F1F1F"/>
</g>
<mask id="mask75_4_1508" style="mask-type:luminance" maskUnits="userSpaceOnUse" x="-266" y="-138" width="784" height="470">
<path d="M-265.184 -137.021H517.804V331.334H-265.184V-137.021Z" fill="white"/>
</mask>
<g mask="url(#mask75_4_1508)">
<path d="M146.643 294.113H146.547V292.908H146.642C247.42 292.908 322.989 233.649 368.645 183.929C418.154 130.011 444.124 75.3979 444.381 74.8524L445.473 75.366C445.215 75.9128 419.166 130.692 369.533 184.745C340.373 216.499 308.898 241.8 275.981 259.943C234.844 282.617 191.327 294.113 146.643 294.113Z" fill="#1F1F1F"/>
</g>
<mask id="mask76_4_1508" style="mask-type:luminance" maskUnits="userSpaceOnUse" x="-266" y="-138" width="784" height="470">
<path d="M-265.184 -137.021H517.804V331.334H-265.184V-137.021Z" fill="white"/>
</mask>
<g mask="url(#mask76_4_1508)">
<path d="M152.207 296.977H152.111V295.77H152.205C252.984 295.77 328.552 236.513 374.208 186.792C423.717 132.875 449.689 78.2618 449.945 77.7162L451.037 78.2298C450.779 78.7767 424.73 133.556 375.097 187.608C345.937 219.363 314.462 244.664 281.545 262.806C240.408 285.48 196.891 296.977 152.207 296.977Z" fill="#1F1F1F"/>
</g>
<mask id="mask77_4_1508" style="mask-type:luminance" maskUnits="userSpaceOnUse" x="-266" y="-138" width="784" height="470">
<path d="M-265.184 -137.021H517.804V331.334H-265.184V-137.021Z" fill="white"/>
</mask>
<g mask="url(#mask77_4_1508)">
<path d="M157.771 299.839H157.675V298.634H157.769C258.534 298.634 334.096 239.389 379.749 189.68C429.266 135.763 455.252 81.1243 455.508 80.5788L456.601 81.0923C456.343 81.6392 430.294 136.419 380.661 190.472C351.501 222.226 320.026 247.527 287.109 265.67C245.973 288.342 202.456 299.839 157.771 299.839Z" fill="#1F1F1F"/>
</g>
<mask id="mask78_4_1508" style="mask-type:luminance" maskUnits="userSpaceOnUse" x="-266" y="-138" width="784" height="470">
<path d="M-265.184 -137.021H517.804V331.334H-265.184V-137.021Z" fill="white"/>
</mask>
<g mask="url(#mask78_4_1508)">
<path d="M163.334 302.703H163.239V301.496H163.334C264.099 301.496 339.66 242.251 385.313 192.544C434.83 138.625 460.816 83.988 461.072 83.4425L462.165 83.9561C461.907 84.5029 435.857 139.282 386.226 193.334C357.066 225.089 325.59 250.39 292.673 268.534C251.537 291.206 208.02 302.703 163.334 302.703Z" fill="#1F1F1F"/>
</g>
<mask id="mask79_4_1508" style="mask-type:luminance" maskUnits="userSpaceOnUse" x="-266" y="-138" width="784" height="470">
<path d="M-265.184 -137.021H517.804V331.334H-265.184V-137.021Z" fill="white"/>
</mask>
<g mask="url(#mask79_4_1508)">
<path d="M168.898 305.566H168.802V304.36H168.897C269.663 304.36 345.225 245.115 390.877 195.406C440.394 141.489 466.379 86.8505 466.636 86.305L467.728 86.8186C467.47 87.3654 441.421 142.145 391.79 196.198C362.63 227.953 331.155 253.253 298.236 271.396C257.1 294.07 213.584 305.566 168.898 305.566Z" fill="#1F1F1F"/>
</g>
<mask id="mask80_4_1508" style="mask-type:luminance" maskUnits="userSpaceOnUse" x="-266" y="-138" width="784" height="470">
<path d="M-265.184 -137.021H517.804V331.334H-265.184V-137.021Z" fill="white"/>
</mask>
<g mask="url(#mask80_4_1508)">
<path d="M174.462 308.429H174.366V307.223H174.462C275.227 307.223 350.789 247.979 396.441 198.27C445.958 144.351 471.944 89.7142 472.2 89.1687L473.292 89.6823C473.034 90.2292 446.985 145.009 397.354 199.06C368.194 230.815 336.719 256.117 303.8 274.26C262.664 296.932 219.148 308.429 174.462 308.429Z" fill="#1F1F1F"/>
</g>
<mask id="mask81_4_1508" style="mask-type:luminance" maskUnits="userSpaceOnUse" x="-266" y="-138" width="784" height="470">
<path d="M-265.184 -137.021H517.804V331.334H-265.184V-137.021Z" fill="white"/>
</mask>
<g mask="url(#mask81_4_1508)">
<path d="M180.026 311.292H179.93V310.086H180.026C280.803 310.086 356.371 250.83 402.029 201.107C451.536 147.19 477.508 92.5768 477.764 92.0312L478.857 92.5448C478.599 93.0917 452.549 147.873 402.917 201.924C373.757 233.679 342.282 258.979 309.364 277.122C268.228 299.796 224.712 311.292 180.026 311.292Z" fill="#1F1F1F"/>
</g>
<mask id="mask82_4_1508" style="mask-type:luminance" maskUnits="userSpaceOnUse" x="-266" y="-138" width="784" height="470">
<path d="M-265.184 -137.021H517.804V331.334H-265.184V-137.021Z" fill="white"/>
</mask>
<g mask="url(#mask82_4_1508)">
<path d="M185.589 314.156H185.494L185.495 312.949H185.589C286.366 312.949 361.937 253.692 407.592 203.971C457.1 150.054 483.072 95.4405 483.329 94.895L484.421 95.4085C484.163 95.9554 458.113 150.735 408.481 204.787C379.321 236.541 347.846 261.843 314.928 279.986C273.792 302.658 230.275 314.156 185.589 314.156Z" fill="#1F1F1F"/>
</g>
<mask id="mask83_4_1508" style="mask-type:luminance" maskUnits="userSpaceOnUse" x="-266" y="-138" width="784" height="470">
<path d="M-265.184 -137.021H517.804V331.334H-265.184V-137.021Z" fill="white"/>
</mask>
<g mask="url(#mask83_4_1508)">
<path d="M191.155 317.018H191.058L191.059 315.813H191.153C291.932 315.813 367.5 256.556 413.156 206.834C462.665 152.916 488.636 98.3043 488.893 97.7575L489.985 98.2724C489.727 98.8179 463.676 153.599 414.045 207.651C384.885 239.405 353.41 264.705 320.491 282.849C279.355 305.522 235.839 317.018 191.155 317.018Z" fill="#1F1F1F"/>
</g>
<mask id="mask84_4_1508" style="mask-type:luminance" maskUnits="userSpaceOnUse" x="-266" y="-138" width="784" height="470">
<path d="M-265.184 -137.021H517.804V331.334H-265.184V-137.021Z" fill="white"/>
</mask>
<g mask="url(#mask84_4_1508)">
<path d="M196.718 319.882H196.621L196.623 318.675H196.717C297.495 318.675 373.064 259.418 418.72 209.697C468.229 155.78 494.2 101.167 494.456 100.621L495.549 101.135C495.291 101.682 469.24 156.461 419.609 210.513C390.449 242.268 358.974 267.569 326.055 285.712C284.919 308.385 241.403 319.882 196.718 319.882Z" fill="#1F1F1F"/>
</g>
<mask id="mask85_4_1508" style="mask-type:luminance" maskUnits="userSpaceOnUse" x="-266" y="-138" width="784" height="470">
<path d="M-265.184 -137.021H517.804V331.334H-265.184V-137.021Z" fill="white"/>
</mask>
<g mask="url(#mask85_4_1508)">
<path d="M202.282 322.744H202.186V321.539H202.281C303.046 321.539 378.608 262.294 424.26 212.585C473.778 158.668 499.763 104.031 500.02 103.484L501.112 103.999C500.854 104.544 474.804 159.325 425.173 213.377C396.013 245.131 364.538 270.432 331.62 288.575C290.483 311.248 246.967 322.744 202.282 322.744Z" fill="#1F1F1F"/>
</g>
<mask id="mask86_4_1508" style="mask-type:luminance" maskUnits="userSpaceOnUse" x="-266" y="-138" width="784" height="470">
<path d="M-265.184 -137.021H517.804V331.334H-265.184V-137.021Z" fill="white"/>
</mask>
<g mask="url(#mask86_4_1508)">
<path d="M207.846 325.608H207.75V324.401H207.845C308.61 324.401 384.172 265.158 429.825 215.449C479.342 161.531 505.327 106.893 505.584 106.347L506.676 106.861C506.418 107.408 480.368 162.187 430.736 216.239C401.577 247.994 370.101 273.295 337.184 291.438C296.047 314.111 252.531 325.608 207.846 325.608Z" fill="#1F1F1F"/>
</g>
<mask id="mask87_4_1508" style="mask-type:luminance" maskUnits="userSpaceOnUse" x="-266" y="-138" width="784" height="470">
<path d="M-265.184 -137.021H517.804V331.334H-265.184V-137.021Z" fill="white"/>
</mask>
<g mask="url(#mask87_4_1508)">
<path d="M213.41 328.471H213.314V327.265H213.408C314.173 327.265 389.736 268.02 435.389 218.313C484.906 164.394 510.891 109.757 511.148 109.21L512.24 109.725C511.982 110.27 485.933 165.051 436.3 219.103C407.14 250.858 375.665 276.158 342.748 294.301C301.611 316.975 258.094 328.471 213.41 328.471Z" fill="#1F1F1F"/>
</g>
<mask id="mask88_4_1508" style="mask-type:luminance" maskUnits="userSpaceOnUse" x="-266" y="-138" width="784" height="470">
<path d="M-265.184 -137.021H517.804V331.334H-265.184V-137.021Z" fill="white"/>
</mask>
<g mask="url(#mask88_4_1508)">
<path d="M218.975 331.334H218.878V330.127H218.974C319.739 330.127 395.299 270.884 440.952 221.175C490.469 167.258 516.455 112.619 516.711 112.074L517.804 112.587C517.546 113.134 491.497 167.915 441.865 221.967C412.705 253.721 381.229 279.022 348.312 297.165C307.174 319.837 263.659 331.334 218.975 331.334Z" fill="#1F1F1F"/>
</g>
</g>
</g>
<mask id="mask89_4_1508" style="mask-type:luminance" maskUnits="userSpaceOnUse" x="0" y="0" width="224" height="224">
<path d="M0 111.999C0 173.856 50.145 224 112 224C173.855 224 224 173.856 224 111.999C224 50.144 173.855 5.49264e-05 112 5.49264e-05C50.145 5.49264e-05 0 50.144 0 111.999Z" fill="white"/>
</mask>
<g mask="url(#mask89_4_1508)">
<path d="M111.999 214.171C168.686 214.171 214.64 168.217 214.64 111.529C214.64 54.8429 168.686 8.88878 111.999 8.88878C55.3119 8.88878 9.35805 54.8429 9.35805 111.529C9.35805 168.217 55.3119 214.171 111.999 214.171Z" stroke="#FFC814" stroke-width="2.66667" stroke-miterlimit="10"/>
<path d="M116.754 15.4967C170.764 15.4967 214.548 59.2807 214.548 113.291C214.548 167.301 170.764 211.085 116.754 211.085C62.7431 211.085 18.9591 167.301 18.9591 113.291C18.9591 59.2807 62.7431 15.4967 116.754 15.4967Z" stroke="#FFC814" stroke-width="1.8" stroke-miterlimit="10"/>
</g>
<mask id="mask90_4_1508" style="mask-type:luminance" maskUnits="userSpaceOnUse" x="0" y="0" width="224" height="224">
<path d="M0 111.999C0 173.856 50.145 224 112 224C173.855 224 224 173.856 224 111.999C224 50.144 173.855 5.49264e-05 112 5.49264e-05C50.145 5.49264e-05 0 50.144 0 111.999Z" fill="white"/>
</mask>
<g mask="url(#mask90_4_1508)">
<path d="M159.459 173.744H275.223V174.6H159.459V173.744Z" fill="#FFC814"/>
</g>
<g filter="url(#filter0_f_4_1508)">
<ellipse cx="113.728" cy="112.295" rx="77.804" ry="73.3761" fill="#2E2E2E" fill-opacity="0.6"/>
</g>
<path d="M79.4789 172.179V172.144C79.4789 171.777 79.1644 170.859 78.5355 169.39C78.4261 169.136 78.3695 169.009 78.3656 169.009L78.1957 169.402C77.5472 170.914 77.223 171.832 77.223 172.156C77.223 172.211 77.2562 172.24 77.3226 172.244C77.3929 172.248 77.4457 172.25 77.4808 172.25L77.9379 172.261H78.3539L78.3949 172.256C79.1176 172.256 79.4789 172.23 79.4789 172.179ZM74.5922 175.302C74.5922 175.205 74.7035 175.092 74.9261 174.963C75.1488 174.834 75.3129 174.67 75.4183 174.47C75.5238 174.271 75.6722 173.912 75.8636 173.392C76.0551 172.869 76.3148 172.211 76.6429 171.418C76.975 170.625 77.2367 169.914 77.4281 169.285C77.6234 168.652 77.7562 168.252 77.8265 168.084C77.9867 167.701 78.2133 167.509 78.5062 167.509H78.6703C78.7445 167.509 78.8363 167.55 78.9457 167.633C79.1683 167.8 79.4008 168.16 79.6429 168.711C79.725 168.898 79.848 169.22 80.0121 169.677C80.1761 170.131 80.5043 171.019 80.9965 172.343C81.4886 173.668 81.764 174.388 81.8226 174.506C81.9203 174.709 82.0863 174.873 82.3207 174.998C82.5551 175.119 82.6722 175.217 82.6722 175.291C82.6722 175.455 82.5746 175.556 82.3793 175.595C82.2465 175.623 81.9105 175.636 81.3715 175.636L81.0316 175.642C80.309 175.642 79.9476 175.545 79.9476 175.349C79.9476 175.314 79.9926 175.23 80.0824 175.097C80.1761 174.965 80.223 174.797 80.223 174.593C80.223 174.39 80.1488 174.099 80.0004 173.72C79.8558 173.342 79.7328 173.107 79.6312 173.017C79.5336 172.927 79.1097 172.883 78.3597 172.883C77.6097 172.883 77.1722 172.924 77.0472 173.006C76.9222 173.088 76.7875 173.308 76.6429 173.668C76.4984 174.027 76.4261 174.32 76.4261 174.547C76.4261 174.769 76.4945 174.967 76.6312 175.138C76.7719 175.31 76.8422 175.4 76.8422 175.408C76.8422 175.549 76.6019 175.619 76.1215 175.619C75.6449 175.619 75.2699 175.601 74.9965 175.566C74.7269 175.527 74.5922 175.439 74.5922 175.302ZM87.3539 168.388C87.0336 168.17 86.6722 168.06 86.2699 168.06C85.8715 168.06 85.5453 168.166 85.2914 168.377C85.0375 168.584 84.9105 168.877 84.9105 169.256C84.9105 169.631 85.1 169.963 85.4789 170.252C85.7054 170.427 86.1683 170.666 86.8676 170.967C87.5668 171.267 88.0531 171.545 88.3265 171.799C88.85 172.283 89.1117 172.787 89.1117 173.31V173.521C89.1117 174.17 88.8539 174.697 88.3383 175.103C88.1 175.291 87.8031 175.441 87.4476 175.554C87.0922 175.664 86.7367 175.718 86.3812 175.718H86.1644C85.3597 175.718 84.6547 175.597 84.0492 175.355C83.7758 175.246 83.639 174.947 83.639 174.459V174.254C83.639 173.675 83.7386 173.386 83.9379 173.386C84.0746 173.386 84.2601 173.572 84.4945 173.943C84.7289 174.314 84.9984 174.593 85.3031 174.781C85.6117 174.968 85.9828 175.062 86.4164 175.062C86.85 175.062 87.1996 174.949 87.4652 174.722C87.7308 174.492 87.8636 174.209 87.8636 173.873C87.8636 173.412 87.6488 173.023 87.2191 172.707C87.0355 172.574 86.5746 172.338 85.8363 171.998C85.098 171.654 84.5863 171.334 84.3011 171.037C83.9105 170.631 83.7152 170.134 83.7152 169.549C83.7152 168.963 83.9242 168.476 84.3422 168.09C84.5726 167.875 84.8597 167.709 85.2035 167.592C85.5472 167.47 85.8988 167.41 86.2582 167.41H86.475C86.6234 167.41 86.8344 167.435 87.1078 167.486L87.3129 167.527C87.5551 167.574 87.6859 167.599 87.7054 167.603L87.8871 167.615L88.0629 167.621C88.2269 167.633 88.3422 167.652 88.4086 167.679C88.639 167.773 88.7543 168.099 88.7543 168.658C88.7543 169.217 88.6449 169.496 88.4261 169.496C88.3168 169.496 88.1527 169.34 87.934 169.027C87.7152 168.715 87.5219 168.502 87.3539 168.388ZM93.4828 167.738C93.4828 167.812 93.3695 167.922 93.1429 168.066C92.9203 168.211 92.7816 168.408 92.7269 168.658C92.6761 168.904 92.6508 169.886 92.6508 171.605C92.6508 173.32 92.682 174.302 92.7445 174.552C92.8109 174.799 92.9535 174.984 93.1722 175.109C93.3949 175.23 93.5062 175.343 93.5062 175.449C93.5062 175.593 93.3285 175.666 92.973 175.666L92.8441 175.66L92.5746 175.654C92.4847 175.65 92.3949 175.648 92.3051 175.648L92.0472 175.636H91.2562C90.6195 175.636 90.3011 175.58 90.3011 175.467V175.384C90.3011 175.31 90.4261 175.201 90.6761 175.056C90.9301 174.908 91.0883 174.701 91.1508 174.435C91.2133 174.166 91.2445 173.211 91.2445 171.57C91.2445 169.925 91.2074 168.967 91.1332 168.693C91.059 168.416 90.9418 168.234 90.7816 168.148C90.4613 167.972 90.3011 167.84 90.3011 167.75C90.3011 167.597 90.9047 167.521 92.1117 167.521L92.7562 167.509H93.1371C93.3676 167.509 93.4828 167.586 93.4828 167.738ZM99.1781 172.179V172.144C99.1781 171.777 98.8636 170.859 98.2347 169.39C98.1254 169.136 98.0687 169.009 98.0648 169.009L97.8949 169.402C97.2465 170.914 96.9222 171.832 96.9222 172.156C96.9222 172.211 96.9554 172.24 97.0219 172.244C97.0922 172.248 97.1449 172.25 97.1801 172.25L97.6371 172.261H98.0531L98.0941 172.256C98.8168 172.256 99.1781 172.23 99.1781 172.179ZM94.2914 175.302C94.2914 175.205 94.4027 175.092 94.6254 174.963C94.848 174.834 95.0121 174.67 95.1176 174.47C95.223 174.271 95.3715 173.912 95.5629 173.392C95.7543 172.869 96.014 172.211 96.3422 171.418C96.6742 170.625 96.9359 169.914 97.1273 169.285C97.3226 168.652 97.4554 168.252 97.5258 168.084C97.6859 167.701 97.9125 167.509 98.2054 167.509H98.3695C98.4437 167.509 98.5355 167.55 98.6449 167.633C98.8676 167.8 99.1 168.16 99.3422 168.711C99.4242 168.898 99.5472 169.22 99.7113 169.677C99.8754 170.131 100.203 171.019 100.696 172.343C101.188 173.668 101.463 174.388 101.522 174.506C101.62 174.709 101.786 174.873 102.02 174.998C102.254 175.119 102.371 175.217 102.371 175.291C102.371 175.455 102.274 175.556 102.078 175.595C101.946 175.623 101.61 175.636 101.071 175.636L100.731 175.642C100.008 175.642 99.6469 175.545 99.6469 175.349C99.6469 175.314 99.6918 175.23 99.7816 175.097C99.8754 174.965 99.9222 174.797 99.9222 174.593C99.9222 174.39 99.848 174.099 99.6996 173.72C99.5551 173.342 99.432 173.107 99.3304 173.017C99.2328 172.927 98.809 172.883 98.059 172.883C97.309 172.883 96.8715 172.924 96.7465 173.006C96.6215 173.088 96.4867 173.308 96.3422 173.668C96.1976 174.027 96.1254 174.32 96.1254 174.547C96.1254 174.769 96.1937 174.967 96.3304 175.138C96.4711 175.31 96.5414 175.4 96.5414 175.408C96.5414 175.549 96.3011 175.619 95.8207 175.619C95.3441 175.619 94.9691 175.601 94.6957 175.566C94.4261 175.527 94.2914 175.439 94.2914 175.302ZM110.194 167.433H110.393C110.666 167.433 110.981 167.468 111.336 167.539C111.692 167.605 111.971 167.644 112.174 167.656C112.377 167.668 112.537 167.707 112.655 167.773C112.881 167.902 112.995 168.236 112.995 168.775C112.995 169.314 112.893 169.584 112.69 169.584C112.623 169.584 112.459 169.435 112.198 169.138C111.936 168.838 111.686 168.623 111.448 168.494C111.026 168.267 110.553 168.154 110.03 168.154C109.729 168.154 109.426 168.236 109.121 168.4C108.203 168.888 107.745 169.951 107.745 171.588C107.748 172.603 107.985 173.424 108.453 174.049C108.922 174.674 109.575 174.986 110.411 174.986C111.125 174.986 111.731 174.75 112.227 174.277C112.536 173.984 112.733 173.838 112.819 173.838C112.983 173.838 113.065 173.957 113.065 174.195C113.065 174.316 112.989 174.506 112.836 174.763C112.684 175.021 112.514 175.203 112.327 175.308C111.799 175.601 111.114 175.748 110.27 175.748H110.065C109.592 175.748 109.114 175.662 108.629 175.49C107.649 175.142 106.961 174.455 106.567 173.427C106.364 172.892 106.262 172.308 106.262 171.675C106.262 171.039 106.364 170.455 106.567 169.924C106.977 168.845 107.672 168.113 108.653 167.726C109.149 167.531 109.662 167.433 110.194 167.433ZM115.045 173.422C115.01 173.168 114.993 172.386 114.993 171.078C114.993 169.765 114.971 168.992 114.928 168.758C114.885 168.523 114.786 168.359 114.629 168.265C114.305 168.07 114.143 167.918 114.143 167.808C114.143 167.699 114.211 167.621 114.348 167.574C114.489 167.527 114.842 167.504 115.409 167.504H116.299C116.733 167.504 116.95 167.592 116.95 167.767C116.95 167.775 116.875 167.871 116.727 168.054C116.582 168.234 116.485 168.496 116.434 168.84C116.383 169.179 116.358 169.892 116.358 170.978C116.358 172.064 116.385 172.806 116.44 173.205C116.604 174.392 117.264 174.988 118.42 174.992C119.178 174.992 119.727 174.726 120.067 174.195C120.352 173.758 120.495 172.998 120.495 171.916L120.506 171.435C120.506 171.197 120.506 170.779 120.506 170.181C120.506 169.584 120.469 169.14 120.395 168.851C120.325 168.558 120.217 168.302 120.073 168.084C119.932 167.865 119.862 167.75 119.862 167.738C119.862 167.59 120.149 167.515 120.723 167.515C121.297 167.515 121.684 167.535 121.883 167.574C122.082 167.613 122.182 167.722 122.182 167.902C122.182 167.992 122.065 168.105 121.83 168.242C121.596 168.379 121.452 168.529 121.397 168.693C121.342 168.853 121.315 169.474 121.315 170.556L121.327 171.968C121.323 172.734 121.278 173.314 121.192 173.709C121.106 174.107 120.928 174.467 120.659 174.787C120.135 175.412 119.286 175.724 118.11 175.724C116.934 175.724 116.075 175.367 115.532 174.652C115.274 174.316 115.112 173.906 115.045 173.422ZM126.389 167.738C126.389 167.812 126.276 167.922 126.049 168.066C125.827 168.211 125.688 168.408 125.633 168.658C125.582 168.904 125.557 169.886 125.557 171.605C125.557 173.32 125.588 174.302 125.651 174.552C125.717 174.799 125.86 174.984 126.078 175.109C126.301 175.23 126.412 175.343 126.412 175.449C126.412 175.593 126.235 175.666 125.879 175.666L125.75 175.66L125.481 175.654C125.391 175.65 125.301 175.648 125.211 175.648L124.953 175.636H124.162C123.526 175.636 123.207 175.58 123.207 175.467V175.384C123.207 175.31 123.332 175.201 123.582 175.056C123.836 174.908 123.995 174.701 124.057 174.435C124.12 174.166 124.151 173.211 124.151 171.57C124.151 169.925 124.114 168.967 124.039 168.693C123.965 168.416 123.848 168.234 123.688 168.148C123.368 167.972 123.207 167.84 123.207 167.75C123.207 167.597 123.811 167.521 125.018 167.521L125.662 167.509H126.043C126.274 167.509 126.389 167.586 126.389 167.738ZM131.475 168.388C131.155 168.17 130.793 168.06 130.391 168.06C129.993 168.06 129.666 168.166 129.412 168.377C129.159 168.584 129.032 168.877 129.032 169.256C129.032 169.631 129.221 169.963 129.6 170.252C129.827 170.427 130.289 170.666 130.989 170.967C131.688 171.267 132.174 171.545 132.448 171.799C132.971 172.283 133.233 172.787 133.233 173.31V173.521C133.233 174.17 132.975 174.697 132.459 175.103C132.221 175.291 131.924 175.441 131.569 175.554C131.213 175.664 130.858 175.718 130.502 175.718H130.286C129.481 175.718 128.776 175.597 128.17 175.355C127.897 175.246 127.76 174.947 127.76 174.459V174.254C127.76 173.675 127.86 173.386 128.059 173.386C128.196 173.386 128.381 173.572 128.616 173.943C128.85 174.314 129.12 174.593 129.424 174.781C129.733 174.968 130.104 175.062 130.537 175.062C130.971 175.062 131.321 174.949 131.586 174.722C131.852 174.492 131.985 174.209 131.985 173.873C131.985 173.412 131.77 173.023 131.34 172.707C131.157 172.574 130.696 172.338 129.957 171.998C129.219 171.654 128.707 171.334 128.422 171.037C128.032 170.631 127.836 170.134 127.836 169.549C127.836 168.963 128.045 168.476 128.463 168.09C128.694 167.875 128.981 167.709 129.325 167.592C129.668 167.47 130.02 167.41 130.379 167.41H130.596C130.745 167.41 130.955 167.435 131.229 167.486L131.434 167.527C131.676 167.574 131.807 167.599 131.827 167.603L132.008 167.615L132.184 167.621C132.348 167.633 132.463 167.652 132.53 167.679C132.76 167.773 132.875 168.099 132.875 168.658C132.875 169.217 132.766 169.496 132.547 169.496C132.438 169.496 132.274 169.34 132.055 169.027C131.836 168.715 131.643 168.502 131.475 168.388ZM137.604 167.738C137.604 167.812 137.491 167.922 137.264 168.066C137.041 168.211 136.903 168.408 136.848 168.658C136.797 168.904 136.772 169.886 136.772 171.605C136.772 173.32 136.803 174.302 136.866 174.552C136.932 174.799 137.075 174.984 137.293 175.109C137.516 175.23 137.627 175.343 137.627 175.449C137.627 175.593 137.45 175.666 137.094 175.666L136.965 175.66L136.696 175.654C136.606 175.65 136.516 175.648 136.426 175.648L136.168 175.636H135.377C134.741 175.636 134.422 175.58 134.422 175.467V175.384C134.422 175.31 134.547 175.201 134.797 175.056C135.051 174.908 135.209 174.701 135.272 174.435C135.334 174.166 135.366 173.211 135.366 171.57C135.366 169.925 135.328 168.967 135.254 168.693C135.18 168.416 135.063 168.234 134.903 168.148C134.582 167.972 134.422 167.84 134.422 167.75C134.422 167.597 135.026 167.521 136.233 167.521L136.877 167.509H137.258C137.489 167.509 137.604 167.586 137.604 167.738ZM146.205 174.213C146.205 174.884 146.184 175.277 146.141 175.39C146.098 175.5 146.002 175.554 145.854 175.554C145.534 175.554 145.129 175.261 144.641 174.675L144.465 174.459C144.094 173.986 143.733 173.492 143.381 172.976C143.034 172.461 142.795 172.111 142.666 171.927C141.463 170.252 140.809 169.414 140.703 169.414C140.621 169.414 140.58 170.099 140.58 171.47C140.58 172.842 140.637 173.81 140.75 174.377C140.789 174.58 140.873 174.779 141.002 174.974C141.135 175.166 141.202 175.295 141.202 175.361C141.202 175.529 140.805 175.613 140.012 175.613H139.743C139.188 175.613 138.911 175.543 138.911 175.402C138.911 175.261 139.03 175.125 139.268 174.992C139.51 174.855 139.662 174.672 139.725 174.441C139.787 174.207 139.819 173.386 139.819 171.98L139.836 171.107L139.83 170.252C139.83 169.42 139.78 168.875 139.678 168.617C139.631 168.496 139.496 168.351 139.274 168.183C139.051 168.011 138.94 167.91 138.94 167.879C138.94 167.672 139.151 167.568 139.573 167.568C139.998 167.568 140.334 167.619 140.58 167.72C140.827 167.822 141.043 167.963 141.231 168.142C141.422 168.322 141.832 168.832 142.461 169.672C143.094 170.508 143.532 171.095 143.774 171.435L144.272 172.115C144.87 172.931 145.188 173.34 145.227 173.34C145.352 173.34 145.414 172.658 145.414 171.295C145.414 169.931 145.387 169.109 145.332 168.828C145.282 168.547 145.17 168.314 144.998 168.131C144.83 167.943 144.746 167.842 144.746 167.826C144.746 167.634 144.955 167.539 145.373 167.539H145.93C146.426 167.539 146.754 167.576 146.914 167.65C147.008 167.693 147.055 167.777 147.055 167.902C147.055 167.914 146.907 168.066 146.61 168.359C146.45 168.515 146.344 168.715 146.293 168.957C146.243 169.199 146.217 170.043 146.217 171.488L146.205 172.631V174.213ZM153.131 167.492C153.83 167.492 154.18 167.884 154.18 168.67C154.18 168.877 154.135 168.98 154.045 168.98C153.995 168.98 153.873 168.924 153.682 168.81C153.495 168.693 153.338 168.613 153.213 168.57C152.659 168.379 152.166 168.283 151.737 168.283C151.307 168.283 151.012 168.388 150.852 168.599C150.629 168.892 150.518 169.431 150.518 170.217C150.518 170.498 150.614 170.707 150.805 170.843C150.996 170.98 151.215 171.049 151.461 171.049C151.711 171.049 151.963 170.965 152.217 170.797C152.475 170.625 152.606 170.539 152.61 170.539C152.805 170.539 152.938 170.615 153.008 170.767C153.082 170.92 153.12 171.168 153.12 171.511C153.12 172.117 152.981 172.42 152.703 172.42C152.629 172.42 152.475 172.326 152.241 172.138C152.006 171.947 151.758 171.851 151.496 171.851C151.047 171.851 150.748 171.947 150.6 172.138C150.502 172.263 150.453 172.638 150.453 173.263C150.453 173.888 150.565 174.345 150.787 174.634C150.912 174.795 151.211 174.875 151.684 174.875C152.157 174.875 152.707 174.773 153.336 174.57C153.512 174.515 153.653 174.451 153.758 174.377C153.864 174.302 153.971 174.224 154.08 174.142C154.19 174.056 154.258 174.013 154.286 174.013C154.418 174.013 154.485 174.08 154.485 174.213V174.4C154.485 174.701 154.432 174.949 154.327 175.144C154.225 175.336 154.131 175.459 154.045 175.513C153.885 175.615 153.248 175.666 152.135 175.666H151.362L151.104 175.66C149.631 175.66 148.782 175.644 148.555 175.613C148.328 175.578 148.215 175.49 148.215 175.349C148.215 175.259 148.321 175.146 148.532 175.009C148.743 174.873 148.879 174.701 148.942 174.494C149.004 174.287 149.036 173.476 149.036 172.062L149.059 169.771C149.059 169.021 149.012 168.556 148.918 168.377C148.875 168.295 148.754 168.201 148.555 168.095C148.356 167.99 148.256 167.896 148.256 167.814C148.256 167.658 148.383 167.56 148.637 167.521C148.743 167.506 149.573 167.498 151.127 167.498L152.885 167.492H153.131Z" fill="white"/>
<path d="M97.0342 184.526L96.1342 182.194C96.1075 182.125 96.0795 182.045 96.0502 181.954C96.0208 181.861 95.9928 181.762 95.9662 181.658C95.9102 181.874 95.8528 182.054 95.7942 182.198L94.8942 184.526H97.0342ZM98.6502 186.654H98.0502C97.9808 186.654 97.9248 186.637 97.8822 186.602C97.8395 186.567 97.8075 186.523 97.7862 186.47L97.2502 185.086H94.6782L94.1422 186.47C94.1262 186.518 94.0955 186.561 94.0502 186.598C94.0048 186.635 93.9488 186.654 93.8822 186.654H93.2822L95.5742 180.922H96.3582L98.6502 186.654ZM104.048 180.922V186.654H103.66C103.599 186.654 103.547 186.643 103.504 186.622C103.464 186.601 103.424 186.565 103.384 186.514L100.068 182.194C100.074 182.261 100.078 182.326 100.08 182.39C100.083 182.454 100.084 182.514 100.084 182.57V186.654H99.4042V180.922H99.8042C99.8389 180.922 99.8682 180.925 99.8922 180.93C99.9162 180.933 99.9376 180.939 99.9562 180.95C99.9749 180.958 99.9936 180.971 100.012 180.99C100.031 181.006 100.051 181.027 100.072 181.054L103.388 185.37C103.383 185.301 103.378 185.234 103.372 185.17C103.37 185.103 103.368 185.041 103.368 184.982V180.922H104.048ZM110.482 183.79C110.482 184.219 110.414 184.61 110.278 184.962C110.142 185.314 109.95 185.615 109.702 185.866C109.454 186.117 109.155 186.311 108.806 186.45C108.459 186.586 108.075 186.654 107.654 186.654H105.514V180.922H107.654C108.075 180.922 108.459 180.991 108.806 181.13C109.155 181.266 109.454 181.461 109.702 181.714C109.95 181.965 110.142 182.266 110.278 182.618C110.414 182.97 110.482 183.361 110.482 183.79ZM109.686 183.79C109.686 183.438 109.638 183.123 109.542 182.846C109.446 182.569 109.31 182.334 109.134 182.142C108.958 181.95 108.744 181.803 108.494 181.702C108.243 181.601 107.963 181.55 107.654 181.55H106.29V186.026H107.654C107.963 186.026 108.243 185.975 108.494 185.874C108.744 185.773 108.958 185.627 109.134 185.438C109.31 185.246 109.446 185.011 109.542 184.734C109.638 184.457 109.686 184.142 109.686 183.79ZM116.578 181.818C116.554 181.858 116.528 181.889 116.498 181.91C116.472 181.929 116.438 181.938 116.398 181.938C116.353 181.938 116.3 181.915 116.238 181.87C116.177 181.825 116.1 181.775 116.006 181.722C115.916 181.666 115.805 181.615 115.674 181.57C115.546 181.525 115.39 181.502 115.206 181.502C115.033 181.502 114.88 181.526 114.746 181.574C114.616 181.619 114.505 181.682 114.414 181.762C114.326 181.842 114.26 181.937 114.214 182.046C114.169 182.153 114.146 182.269 114.146 182.394C114.146 182.554 114.185 182.687 114.262 182.794C114.342 182.898 114.446 182.987 114.574 183.062C114.705 183.137 114.852 183.202 115.014 183.258C115.18 183.311 115.348 183.367 115.518 183.426C115.692 183.485 115.86 183.551 116.022 183.626C116.188 183.698 116.334 183.79 116.462 183.902C116.593 184.014 116.697 184.151 116.774 184.314C116.854 184.477 116.894 184.677 116.894 184.914C116.894 185.165 116.852 185.401 116.766 185.622C116.681 185.841 116.556 186.031 116.39 186.194C116.228 186.357 116.026 186.485 115.786 186.578C115.549 186.671 115.278 186.718 114.974 186.718C114.601 186.718 114.262 186.651 113.958 186.518C113.654 186.382 113.394 186.199 113.178 185.97L113.402 185.602C113.424 185.573 113.449 185.549 113.478 185.53C113.51 185.509 113.545 185.498 113.582 185.498C113.617 185.498 113.656 185.513 113.698 185.542C113.744 185.569 113.794 185.603 113.85 185.646C113.906 185.689 113.97 185.735 114.042 185.786C114.114 185.837 114.196 185.883 114.286 185.926C114.38 185.969 114.485 186.005 114.602 186.034C114.72 186.061 114.852 186.074 114.998 186.074C115.182 186.074 115.346 186.049 115.49 185.998C115.634 185.947 115.756 185.877 115.854 185.786C115.956 185.693 116.033 185.582 116.086 185.454C116.14 185.326 116.166 185.183 116.166 185.026C116.166 184.853 116.126 184.711 116.046 184.602C115.969 184.49 115.866 184.397 115.738 184.322C115.61 184.247 115.464 184.185 115.298 184.134C115.133 184.081 114.965 184.027 114.794 183.974C114.624 183.918 114.456 183.854 114.29 183.782C114.125 183.71 113.978 183.617 113.85 183.502C113.722 183.387 113.618 183.245 113.538 183.074C113.461 182.901 113.422 182.687 113.422 182.434C113.422 182.231 113.461 182.035 113.538 181.846C113.618 181.657 113.733 181.489 113.882 181.342C114.034 181.195 114.22 181.078 114.438 180.99C114.66 180.902 114.913 180.858 115.198 180.858C115.518 180.858 115.809 180.909 116.07 181.01C116.334 181.111 116.566 181.258 116.766 181.45L116.578 181.818ZM120.202 186.038C120.44 186.038 120.652 185.998 120.838 185.918C121.025 185.838 121.182 185.726 121.31 185.582C121.441 185.438 121.54 185.266 121.606 185.066C121.676 184.866 121.71 184.646 121.71 184.406V180.922H122.482V184.406C122.482 184.737 122.429 185.043 122.322 185.326C122.218 185.609 122.068 185.854 121.87 186.062C121.676 186.267 121.437 186.429 121.154 186.546C120.872 186.663 120.554 186.722 120.202 186.722C119.85 186.722 119.533 186.663 119.25 186.546C118.968 186.429 118.728 186.267 118.53 186.062C118.333 185.854 118.181 185.609 118.074 185.326C117.97 185.043 117.918 184.737 117.918 184.406V180.922H118.69V184.402C118.69 184.642 118.724 184.862 118.79 185.062C118.86 185.262 118.958 185.434 119.086 185.578C119.217 185.722 119.376 185.835 119.562 185.918C119.752 185.998 119.965 186.038 120.202 186.038ZM126.805 181.818C126.781 181.858 126.754 181.889 126.725 181.91C126.698 181.929 126.665 181.938 126.625 181.938C126.58 181.938 126.526 181.915 126.465 181.87C126.404 181.825 126.326 181.775 126.233 181.722C126.142 181.666 126.032 181.615 125.901 181.57C125.773 181.525 125.617 181.502 125.433 181.502C125.26 181.502 125.106 181.526 124.973 181.574C124.842 181.619 124.732 181.682 124.641 181.762C124.553 181.842 124.486 181.937 124.441 182.046C124.396 182.153 124.373 182.269 124.373 182.394C124.373 182.554 124.412 182.687 124.489 182.794C124.569 182.898 124.673 182.987 124.801 183.062C124.932 183.137 125.078 183.202 125.241 183.258C125.406 183.311 125.574 183.367 125.745 183.426C125.918 183.485 126.086 183.551 126.249 183.626C126.414 183.698 126.561 183.79 126.689 183.902C126.82 184.014 126.924 184.151 127.001 184.314C127.081 184.477 127.121 184.677 127.121 184.914C127.121 185.165 127.078 185.401 126.993 185.622C126.908 185.841 126.782 186.031 126.617 186.194C126.454 186.357 126.253 186.485 126.013 186.578C125.776 186.671 125.505 186.718 125.201 186.718C124.828 186.718 124.489 186.651 124.185 186.518C123.881 186.382 123.621 186.199 123.405 185.97L123.629 185.602C123.65 185.573 123.676 185.549 123.705 185.53C123.737 185.509 123.772 185.498 123.809 185.498C123.844 185.498 123.882 185.513 123.925 185.542C123.97 185.569 124.021 185.603 124.077 185.646C124.133 185.689 124.197 185.735 124.269 185.786C124.341 185.837 124.422 185.883 124.513 185.926C124.606 185.969 124.712 186.005 124.829 186.034C124.946 186.061 125.078 186.074 125.225 186.074C125.409 186.074 125.573 186.049 125.717 185.998C125.861 185.947 125.982 185.877 126.081 185.786C126.182 185.693 126.26 185.582 126.313 185.454C126.366 185.326 126.393 185.183 126.393 185.026C126.393 184.853 126.353 184.711 126.273 184.602C126.196 184.49 126.093 184.397 125.965 184.322C125.837 184.247 125.69 184.185 125.525 184.134C125.36 184.081 125.192 184.027 125.021 183.974C124.85 183.918 124.682 183.854 124.517 183.782C124.352 183.71 124.205 183.617 124.077 183.502C123.949 183.387 123.845 183.245 123.765 183.074C123.688 182.901 123.649 182.687 123.649 182.434C123.649 182.231 123.688 182.035 123.765 181.846C123.845 181.657 123.96 181.489 124.109 181.342C124.261 181.195 124.446 181.078 124.665 180.99C124.886 180.902 125.14 180.858 125.425 180.858C125.745 180.858 126.036 180.909 126.297 181.01C126.561 181.111 126.793 181.258 126.993 181.45L126.805 181.818ZM132.861 180.922V186.654H132.085V184.046H128.993V186.654H128.217V180.922H128.993V183.478H132.085V180.922H132.861ZM135.102 186.654H134.326V180.922H135.102V186.654Z" fill="white"/>
<path d="M61.3824 105.727C58.1824 105.727 55.5158 104.66 53.3824 102.527C51.3024 100.447 50.2624 98.0201 50.2624 95.2468C50.2624 92.4201 50.9291 89.8068 52.2624 87.4068C53.5958 84.9534 55.4891 82.6868 57.9424 80.6068C60.4491 78.5268 63.7024 76.8201 67.7024 75.4868C71.7024 74.1001 76.1291 73.3268 80.9824 73.1668C83.8091 66.1801 86.3158 58.3668 88.5024 49.7268C88.5558 49.4068 88.5824 49.0068 88.5824 48.5268C88.5824 47.9934 88.3158 47.5401 87.7824 47.1668V46.3668C92.3691 45.5134 96.5558 45.0868 100.342 45.0868L105.142 45.4068C106.529 47.8601 107.302 51.2734 107.462 55.6468C107.622 59.9668 107.729 67.4868 107.782 78.2068C113.542 80.7134 118.476 83.8868 122.582 87.7268C122.369 88.4201 121.942 89.1134 121.302 89.8068C120.716 90.4468 120.156 90.9268 119.622 91.2468L118.822 91.7268C115.676 88.6334 112.022 85.9934 107.862 83.8068C107.969 86.8468 108.262 89.4068 108.742 91.4868C109.489 94.9001 110.369 96.6068 111.382 96.6068C111.969 96.6068 112.662 96.4734 113.462 96.2068L114.662 99.3268C110.982 101.673 107.462 102.847 104.102 102.847C98.5558 102.847 95.7824 98.6601 95.7824 90.2868V79.8068C92.0491 78.9001 88.6624 78.3401 85.6224 78.1268C78.6891 96.5268 70.6091 105.727 61.3824 105.727ZM78.9824 78.0468C72.9558 78.5268 67.9424 80.6334 63.9424 84.3668C59.9424 88.1001 57.9424 91.5934 57.9424 94.8468C57.9424 98.1001 59.1958 99.7268 61.7024 99.7268C66.8224 99.7268 72.5824 92.5001 78.9824 78.0468ZM94.9024 51.4868C94.7958 51.4334 94.5824 51.4068 94.2624 51.4068C93.9424 51.4068 93.7291 51.4334 93.6224 51.4868C93.1424 55.5401 91.0624 62.8201 87.3824 73.3268C89.9958 73.4868 92.7958 73.8601 95.7824 74.4468C95.7824 61.3268 95.4891 53.6734 94.9024 51.4868ZM116.794 95.8868C116.794 93.5934 117.488 89.7001 118.874 84.2068C120.261 78.6601 120.954 75.2734 120.954 74.0468C120.954 72.7668 119.994 71.0868 118.074 69.0068L118.154 67.9668C121.781 67.2201 126.554 66.8468 132.474 66.8468C132.741 67.5401 132.874 68.7934 132.874 70.6068C132.874 72.4201 132.128 76.2868 130.634 82.2068C129.141 88.1268 128.394 91.8068 128.394 93.2468C128.394 94.6868 128.928 95.4068 129.994 95.4068C131.541 95.4068 133.328 94.8468 135.354 93.7268C135.568 92.4468 136.101 89.9934 136.954 86.3668C138.874 77.8334 139.834 71.7268 139.834 68.0468C141.701 67.3001 145.061 66.9268 149.914 66.9268H151.434C151.434 69.4334 150.688 74.3401 149.194 81.6468C147.701 88.9001 146.954 93.1668 146.954 94.4468C146.954 95.6734 147.221 96.2868 147.754 96.2868C148.074 96.2868 149.594 95.6468 152.314 94.3668L153.834 96.9268C149.088 100.873 144.928 102.847 141.354 102.847C139.648 102.847 138.181 102.367 136.954 101.407C135.781 100.447 135.114 99.1934 134.954 97.6468C130.634 101.167 126.714 102.927 123.194 102.927C121.328 102.927 119.781 102.313 118.554 101.087C117.381 99.8601 116.794 98.1268 116.794 95.8868Z" fill="#FFC300" style="mix-blend-mode:lighten"/>
<path d="M90.0981 151.024H89.5381C89.4314 150.597 89.3781 149.637 89.3781 148.144C89.3781 146.597 90.0981 142.491 91.5381 135.824C92.9781 129.157 93.6981 125.344 93.6981 124.384C93.6981 122.731 92.9514 120.917 91.4581 118.944L90.7381 117.984L90.8181 116.944C93.6981 116.144 98.3114 115.744 104.658 115.744C105.298 117.131 105.618 119.077 105.618 121.584C106.205 120.624 107.431 119.344 109.298 117.744C111.165 116.144 113.085 115.344 115.058 115.344C117.938 115.344 119.378 117.851 119.378 122.864C119.111 123.184 118.738 123.611 118.258 124.144C117.831 124.624 116.925 125.317 115.538 126.224C114.205 127.131 112.898 127.691 111.618 127.904C111.565 127.904 111.111 127.184 110.258 125.744C109.405 124.304 108.765 123.584 108.338 123.584C107.005 124.064 105.831 124.864 104.818 125.984C102.365 137.024 101.138 144.171 101.138 147.424C101.138 148.597 101.165 149.424 101.218 149.904C99.3514 150.651 95.6447 151.024 90.0981 151.024ZM141.479 117.664C141.585 117.557 141.879 116.864 142.359 115.584C144.865 115.584 148.225 116.331 152.439 117.824C151.105 122.251 150.039 126.891 149.239 131.744C148.439 136.544 148.039 139.984 148.039 142.064C148.039 144.091 148.252 145.104 148.679 145.104C148.999 145.104 150.172 144.597 152.199 143.584L153.159 143.104L154.599 145.904C154.119 146.331 153.479 146.864 152.679 147.504C151.932 148.144 150.492 149.024 148.359 150.144C146.225 151.211 144.305 151.744 142.599 151.744C139.292 151.744 137.372 150.251 136.839 147.264C133.425 150.251 130.332 151.744 127.559 151.744C124.839 151.744 122.519 150.677 120.599 148.544C118.732 146.411 117.799 143.051 117.799 138.464C117.799 131.317 119.265 125.691 122.199 121.584C125.132 117.424 128.679 115.344 132.839 115.344C135.825 115.344 138.705 116.117 141.479 117.664ZM132.359 144.944C133.639 144.944 135.079 144.437 136.679 143.424C137.052 135.904 138.305 128.464 140.439 121.104C138.839 120.411 137.479 120.064 136.359 120.064C134.439 120.064 132.785 121.957 131.399 125.744C130.065 129.477 129.399 133.611 129.399 138.144C129.399 142.677 130.385 144.944 132.359 144.944Z" fill="#FFC300" style="mix-blend-mode:lighten"/>
<mask id="mask91_4_1508" style="mask-type:luminance" maskUnits="userSpaceOnUse" x="0" y="0" width="224" height="224">
<path d="M0 111.999C0 173.856 50.145 224 112 224C173.855 224 224 173.856 224 111.999C224 50.144 173.855 -5.04815e-06 112 -5.04815e-06C50.145 -5.04815e-06 0 50.144 0 111.999Z" fill="white"/>
</mask>
<g mask="url(#mask91_4_1508)">
<path d="M-49.6541 171.748H66.11V172.604H-49.6541V171.748Z" fill="#FFC814"/>
</g>
<defs>
<filter id="filter0_f_4_1508" x="0.724102" y="3.71843" width="226.008" height="217.152" filterUnits="userSpaceOnUse" color-interpolation-filters="sRGB">
<feFlood flood-opacity="0" result="BackgroundImageFix"/>
<feBlend mode="normal" in="SourceGraphic" in2="BackgroundImageFix" result="shape"/>
<feGaussianBlur stdDeviation="17.6" result="effect1_foregroundBlur_4_1508"/>
</filter>
<linearGradient id="paint0_linear_4_1508" x1="0.000399159" y1="112" x2="223.999" y2="112" gradientUnits="userSpaceOnUse">
<stop/>
<stop offset="1"/>
</linearGradient>
</defs>
</svg>
